<mxfile host="Electron" modified="2024-06-22T13:46:07.659Z" agent="Mozilla/5.0 (Windows NT 10.0; Win64; x64) AppleWebKit/537.36 (KHTML, like Gecko) draw.io/24.6.1 Chrome/124.0.6367.207 Electron/30.0.6 Safari/537.36" etag="SzkdRA4OKAHDzMbWFApX" version="24.6.1" type="device" pages="6">
  <diagram name="КМ" id="sJfeqaa416BmNbrNY8VK">
    <mxGraphModel dx="2261" dy="2013" grid="1" gridSize="10" guides="1" tooltips="1" connect="1" arrows="1" fold="1" page="1" pageScale="1" pageWidth="827" pageHeight="1169" math="0" shadow="0">
      <root>
        <mxCell id="0" />
        <mxCell id="1" parent="0" />
        <mxCell id="gFcMFYdsU8Flf4kH9CEn-2" value="Пользователь" style="rounded=0;whiteSpace=wrap;html=1;fillColor=#dae8fc;strokeColor=#6c8ebf;" parent="1" vertex="1">
          <mxGeometry x="390" y="200" width="120" height="40" as="geometry" />
        </mxCell>
        <mxCell id="gFcMFYdsU8Flf4kH9CEn-3" value="Товар" style="rounded=0;whiteSpace=wrap;html=1;fillColor=#dae8fc;strokeColor=#6c8ebf;" parent="1" vertex="1">
          <mxGeometry x="390" y="630" width="120" height="40" as="geometry" />
        </mxCell>
        <mxCell id="gFcMFYdsU8Flf4kH9CEn-4" value="Категория" style="rounded=0;whiteSpace=wrap;html=1;fillColor=#dae8fc;strokeColor=#6c8ebf;" parent="1" vertex="1">
          <mxGeometry x="160" y="570" width="120" height="40" as="geometry" />
        </mxCell>
        <mxCell id="gFcMFYdsU8Flf4kH9CEn-5" value="Заказ" style="rounded=0;whiteSpace=wrap;html=1;fillColor=#dae8fc;strokeColor=#6c8ebf;" parent="1" vertex="1">
          <mxGeometry x="390" y="360" width="120" height="40" as="geometry" />
        </mxCell>
        <mxCell id="gFcMFYdsU8Flf4kH9CEn-6" value="Состав заказа" style="rounded=0;whiteSpace=wrap;html=1;fillColor=#dae8fc;strokeColor=#6c8ebf;" parent="1" vertex="1">
          <mxGeometry x="390" y="490" width="120" height="40" as="geometry" />
        </mxCell>
        <mxCell id="gFcMFYdsU8Flf4kH9CEn-8" value="Отзыв" style="rounded=0;whiteSpace=wrap;html=1;fillColor=#dae8fc;strokeColor=#6c8ebf;" parent="1" vertex="1">
          <mxGeometry x="650" y="200" width="120" height="40" as="geometry" />
        </mxCell>
        <mxCell id="gFcMFYdsU8Flf4kH9CEn-11" value="Роль" style="rounded=0;whiteSpace=wrap;html=1;fillColor=#dae8fc;strokeColor=#6c8ebf;" parent="1" vertex="1">
          <mxGeometry x="390" y="60" width="120" height="40" as="geometry" />
        </mxCell>
        <mxCell id="gFcMFYdsU8Flf4kH9CEn-15" value="Имеют" style="rhombus;whiteSpace=wrap;html=1;fillColor=#d5e8d4;strokeColor=#82b366;" parent="1" vertex="1">
          <mxGeometry x="410" y="130" width="80" height="40" as="geometry" />
        </mxCell>
        <mxCell id="gFcMFYdsU8Flf4kH9CEn-16" value="" style="endArrow=classic;html=1;rounded=0;" parent="1" source="gFcMFYdsU8Flf4kH9CEn-15" target="gFcMFYdsU8Flf4kH9CEn-11" edge="1">
          <mxGeometry width="50" height="50" relative="1" as="geometry">
            <mxPoint x="390" y="450" as="sourcePoint" />
            <mxPoint x="440" y="400" as="targetPoint" />
          </mxGeometry>
        </mxCell>
        <mxCell id="gFcMFYdsU8Flf4kH9CEn-17" value="" style="endArrow=doubleBlock;html=1;rounded=0;endFill=1;" parent="1" source="gFcMFYdsU8Flf4kH9CEn-15" target="gFcMFYdsU8Flf4kH9CEn-2" edge="1">
          <mxGeometry width="50" height="50" relative="1" as="geometry">
            <mxPoint x="460" y="170" as="sourcePoint" />
            <mxPoint x="460" y="140" as="targetPoint" />
          </mxGeometry>
        </mxCell>
        <mxCell id="gFcMFYdsU8Flf4kH9CEn-18" value="Имеют" style="rhombus;whiteSpace=wrap;html=1;fillColor=#d5e8d4;strokeColor=#82b366;" parent="1" vertex="1">
          <mxGeometry x="300" y="570" width="80" height="40" as="geometry" />
        </mxCell>
        <mxCell id="gFcMFYdsU8Flf4kH9CEn-19" value="" style="endArrow=classic;html=1;rounded=0;" parent="1" source="gFcMFYdsU8Flf4kH9CEn-18" target="gFcMFYdsU8Flf4kH9CEn-4" edge="1">
          <mxGeometry width="50" height="50" relative="1" as="geometry">
            <mxPoint x="60" y="460" as="sourcePoint" />
            <mxPoint x="60" y="430" as="targetPoint" />
          </mxGeometry>
        </mxCell>
        <mxCell id="gFcMFYdsU8Flf4kH9CEn-20" value="" style="endArrow=doubleBlock;html=1;rounded=0;endFill=1;" parent="1" source="gFcMFYdsU8Flf4kH9CEn-18" target="gFcMFYdsU8Flf4kH9CEn-3" edge="1">
          <mxGeometry width="50" height="50" relative="1" as="geometry">
            <mxPoint x="60" y="500" as="sourcePoint" />
            <mxPoint x="60" y="530" as="targetPoint" />
          </mxGeometry>
        </mxCell>
        <mxCell id="gFcMFYdsU8Flf4kH9CEn-21" value="Оставляют" style="rhombus;whiteSpace=wrap;html=1;fillColor=#d5e8d4;strokeColor=#82b366;" parent="1" vertex="1">
          <mxGeometry x="540" y="200" width="80" height="40" as="geometry" />
        </mxCell>
        <mxCell id="gFcMFYdsU8Flf4kH9CEn-22" value="" style="endArrow=classic;html=1;rounded=0;" parent="1" source="gFcMFYdsU8Flf4kH9CEn-21" target="gFcMFYdsU8Flf4kH9CEn-2" edge="1">
          <mxGeometry width="50" height="50" relative="1" as="geometry">
            <mxPoint x="470" y="450" as="sourcePoint" />
            <mxPoint x="520" y="400" as="targetPoint" />
          </mxGeometry>
        </mxCell>
        <mxCell id="gFcMFYdsU8Flf4kH9CEn-24" value="" style="endArrow=doubleBlock;html=1;rounded=0;endFill=1;" parent="1" source="gFcMFYdsU8Flf4kH9CEn-21" target="gFcMFYdsU8Flf4kH9CEn-8" edge="1">
          <mxGeometry width="50" height="50" relative="1" as="geometry">
            <mxPoint x="640" y="340" as="sourcePoint" />
            <mxPoint x="920" y="390" as="targetPoint" />
          </mxGeometry>
        </mxCell>
        <mxCell id="gFcMFYdsU8Flf4kH9CEn-26" value="Делают" style="rhombus;whiteSpace=wrap;html=1;fillColor=#d5e8d4;strokeColor=#82b366;" parent="1" vertex="1">
          <mxGeometry x="410" y="270" width="80" height="40" as="geometry" />
        </mxCell>
        <mxCell id="gFcMFYdsU8Flf4kH9CEn-27" value="" style="endArrow=classic;html=1;rounded=0;" parent="1" source="gFcMFYdsU8Flf4kH9CEn-26" target="gFcMFYdsU8Flf4kH9CEn-2" edge="1">
          <mxGeometry width="50" height="50" relative="1" as="geometry">
            <mxPoint x="460" y="170" as="sourcePoint" />
            <mxPoint x="460" y="140" as="targetPoint" />
          </mxGeometry>
        </mxCell>
        <mxCell id="gFcMFYdsU8Flf4kH9CEn-28" value="" style="endArrow=doubleBlock;html=1;rounded=0;endFill=1;" parent="1" source="gFcMFYdsU8Flf4kH9CEn-26" target="gFcMFYdsU8Flf4kH9CEn-5" edge="1">
          <mxGeometry width="50" height="50" relative="1" as="geometry">
            <mxPoint x="460" y="210" as="sourcePoint" />
            <mxPoint x="460" y="240" as="targetPoint" />
          </mxGeometry>
        </mxCell>
        <mxCell id="gFcMFYdsU8Flf4kH9CEn-29" value="Входит" style="rhombus;whiteSpace=wrap;html=1;fillColor=#d5e8d4;strokeColor=#82b366;" parent="1" vertex="1">
          <mxGeometry x="410" y="420" width="80" height="40" as="geometry" />
        </mxCell>
        <mxCell id="gFcMFYdsU8Flf4kH9CEn-32" value="" style="endArrow=doubleBlock;html=1;rounded=0;endFill=1;" parent="1" source="gFcMFYdsU8Flf4kH9CEn-29" target="gFcMFYdsU8Flf4kH9CEn-6" edge="1">
          <mxGeometry width="50" height="50" relative="1" as="geometry">
            <mxPoint x="460" y="350" as="sourcePoint" />
            <mxPoint x="460" y="380" as="targetPoint" />
          </mxGeometry>
        </mxCell>
        <mxCell id="gFcMFYdsU8Flf4kH9CEn-34" value="" style="endArrow=classic;html=1;rounded=0;" parent="1" source="gFcMFYdsU8Flf4kH9CEn-29" target="gFcMFYdsU8Flf4kH9CEn-5" edge="1">
          <mxGeometry width="50" height="50" relative="1" as="geometry">
            <mxPoint x="300" y="400" as="sourcePoint" />
            <mxPoint x="280" y="400" as="targetPoint" />
          </mxGeometry>
        </mxCell>
        <mxCell id="gFcMFYdsU8Flf4kH9CEn-39" value="Имеет" style="rhombus;whiteSpace=wrap;html=1;fillColor=#d5e8d4;strokeColor=#82b366;" parent="1" vertex="1">
          <mxGeometry x="410" y="560" width="80" height="40" as="geometry" />
        </mxCell>
        <mxCell id="gFcMFYdsU8Flf4kH9CEn-40" value="" style="endArrow=doubleBlock;html=1;rounded=0;endFill=1;" parent="1" source="gFcMFYdsU8Flf4kH9CEn-39" target="gFcMFYdsU8Flf4kH9CEn-6" edge="1">
          <mxGeometry width="50" height="50" relative="1" as="geometry">
            <mxPoint x="460" y="490" as="sourcePoint" />
            <mxPoint x="460" y="520" as="targetPoint" />
          </mxGeometry>
        </mxCell>
        <mxCell id="gFcMFYdsU8Flf4kH9CEn-41" value="" style="endArrow=classic;html=1;rounded=0;" parent="1" source="gFcMFYdsU8Flf4kH9CEn-39" target="gFcMFYdsU8Flf4kH9CEn-3" edge="1">
          <mxGeometry width="50" height="50" relative="1" as="geometry">
            <mxPoint x="460" y="450" as="sourcePoint" />
            <mxPoint x="500" y="620" as="targetPoint" />
          </mxGeometry>
        </mxCell>
        <mxCell id="gFcMFYdsU8Flf4kH9CEn-49" value="Содержит" style="rhombus;whiteSpace=wrap;html=1;fillColor=#d5e8d4;strokeColor=#82b366;" parent="1" vertex="1">
          <mxGeometry x="870" y="450" width="80" height="40" as="geometry" />
        </mxCell>
        <mxCell id="gFcMFYdsU8Flf4kH9CEn-50" value="" style="endArrow=doubleBlock;html=1;rounded=0;endFill=1;" parent="1" source="gFcMFYdsU8Flf4kH9CEn-49" target="gFcMFYdsU8Flf4kH9CEn-8" edge="1">
          <mxGeometry width="50" height="50" relative="1" as="geometry">
            <mxPoint x="630" y="260" as="sourcePoint" />
            <mxPoint x="660" y="260" as="targetPoint" />
            <Array as="points">
              <mxPoint x="910" y="220" />
            </Array>
          </mxGeometry>
        </mxCell>
        <mxCell id="gFcMFYdsU8Flf4kH9CEn-51" value="" style="endArrow=classic;html=1;rounded=0;" parent="1" source="gFcMFYdsU8Flf4kH9CEn-49" target="gFcMFYdsU8Flf4kH9CEn-3" edge="1">
          <mxGeometry width="50" height="50" relative="1" as="geometry">
            <mxPoint x="460" y="590" as="sourcePoint" />
            <mxPoint x="460" y="560" as="targetPoint" />
            <Array as="points">
              <mxPoint x="910" y="650" />
              <mxPoint x="670" y="650" />
            </Array>
          </mxGeometry>
        </mxCell>
        <mxCell id="gFcMFYdsU8Flf4kH9CEn-60" value="Название" style="ellipse;whiteSpace=wrap;html=1;fillColor=#fff2cc;strokeColor=#d6b656;" parent="1" vertex="1">
          <mxGeometry x="30" y="570" width="120" height="40" as="geometry" />
        </mxCell>
        <mxCell id="gFcMFYdsU8Flf4kH9CEn-61" value="" style="endArrow=none;html=1;rounded=0;" parent="1" source="gFcMFYdsU8Flf4kH9CEn-60" target="gFcMFYdsU8Flf4kH9CEn-4" edge="1">
          <mxGeometry width="50" height="50" relative="1" as="geometry">
            <mxPoint x="710" y="610" as="sourcePoint" />
            <mxPoint x="720" y="460" as="targetPoint" />
          </mxGeometry>
        </mxCell>
        <mxCell id="4oVeBWfjkB62ReiRqkcZ-1" value="Дата" style="ellipse;whiteSpace=wrap;html=1;fillColor=#fff2cc;strokeColor=#d6b656;" parent="1" vertex="1">
          <mxGeometry x="250" y="360" width="120" height="40" as="geometry" />
        </mxCell>
        <mxCell id="4oVeBWfjkB62ReiRqkcZ-3" value="" style="endArrow=none;html=1;rounded=0;" parent="1" source="4oVeBWfjkB62ReiRqkcZ-1" target="gFcMFYdsU8Flf4kH9CEn-5" edge="1">
          <mxGeometry width="50" height="50" relative="1" as="geometry">
            <mxPoint x="400" y="450" as="sourcePoint" />
            <mxPoint x="450" y="400" as="targetPoint" />
          </mxGeometry>
        </mxCell>
        <mxCell id="DM_YTz9_BN1A3gSfp-cZ-1" value="Общая стоимость" style="ellipse;whiteSpace=wrap;html=1;fillColor=#fff2cc;strokeColor=#d6b656;" parent="1" vertex="1">
          <mxGeometry x="270" y="420" width="120" height="40" as="geometry" />
        </mxCell>
        <mxCell id="DM_YTz9_BN1A3gSfp-cZ-2" value="Количество" style="ellipse;whiteSpace=wrap;html=1;fillColor=#fff2cc;strokeColor=#d6b656;" parent="1" vertex="1">
          <mxGeometry x="230" y="490" width="120" height="40" as="geometry" />
        </mxCell>
        <mxCell id="DM_YTz9_BN1A3gSfp-cZ-4" value="" style="endArrow=none;html=1;rounded=0;" parent="1" source="DM_YTz9_BN1A3gSfp-cZ-1" target="gFcMFYdsU8Flf4kH9CEn-6" edge="1">
          <mxGeometry width="50" height="50" relative="1" as="geometry">
            <mxPoint x="310" y="450" as="sourcePoint" />
            <mxPoint x="360" y="400" as="targetPoint" />
          </mxGeometry>
        </mxCell>
        <mxCell id="DM_YTz9_BN1A3gSfp-cZ-5" value="" style="endArrow=none;html=1;rounded=0;" parent="1" source="DM_YTz9_BN1A3gSfp-cZ-2" target="gFcMFYdsU8Flf4kH9CEn-6" edge="1">
          <mxGeometry width="50" height="50" relative="1" as="geometry">
            <mxPoint x="310" y="450" as="sourcePoint" />
            <mxPoint x="360" y="400" as="targetPoint" />
          </mxGeometry>
        </mxCell>
        <mxCell id="mlWRB64zD0FW1h9pcZ2g-12" value="Имеют" style="rhombus;whiteSpace=wrap;html=1;fillColor=#d5e8d4;strokeColor=#82b366;" parent="1" vertex="1">
          <mxGeometry x="180" y="190" width="80" height="40" as="geometry" />
        </mxCell>
        <mxCell id="mlWRB64zD0FW1h9pcZ2g-13" value="Корзина" style="rounded=0;whiteSpace=wrap;html=1;fillColor=#dae8fc;strokeColor=#6c8ebf;" parent="1" vertex="1">
          <mxGeometry x="-40" y="190" width="120" height="40" as="geometry" />
        </mxCell>
        <mxCell id="mlWRB64zD0FW1h9pcZ2g-14" value="Количество" style="ellipse;whiteSpace=wrap;html=1;fillColor=#fff2cc;strokeColor=#d6b656;" parent="1" vertex="1">
          <mxGeometry x="-40" y="130" width="120" height="40" as="geometry" />
        </mxCell>
        <mxCell id="mlWRB64zD0FW1h9pcZ2g-15" value="" style="endArrow=none;html=1;rounded=0;" parent="1" source="mlWRB64zD0FW1h9pcZ2g-14" target="mlWRB64zD0FW1h9pcZ2g-13" edge="1">
          <mxGeometry width="50" height="50" relative="1" as="geometry">
            <mxPoint x="430" y="430" as="sourcePoint" />
            <mxPoint x="480" y="380" as="targetPoint" />
          </mxGeometry>
        </mxCell>
        <mxCell id="mlWRB64zD0FW1h9pcZ2g-16" value="" style="endArrow=classic;html=1;rounded=0;" parent="1" source="mlWRB64zD0FW1h9pcZ2g-12" target="gFcMFYdsU8Flf4kH9CEn-2" edge="1">
          <mxGeometry width="50" height="50" relative="1" as="geometry">
            <mxPoint x="430" y="430" as="sourcePoint" />
            <mxPoint x="480" y="380" as="targetPoint" />
          </mxGeometry>
        </mxCell>
        <mxCell id="mlWRB64zD0FW1h9pcZ2g-17" value="" style="endArrow=doubleBlock;html=1;rounded=0;endFill=1;" parent="1" source="mlWRB64zD0FW1h9pcZ2g-12" target="mlWRB64zD0FW1h9pcZ2g-13" edge="1">
          <mxGeometry width="50" height="50" relative="1" as="geometry">
            <mxPoint x="430" y="430" as="sourcePoint" />
            <mxPoint x="480" y="380" as="targetPoint" />
          </mxGeometry>
        </mxCell>
        <mxCell id="mlWRB64zD0FW1h9pcZ2g-18" value="Имеют" style="rhombus;whiteSpace=wrap;html=1;fillColor=#d5e8d4;strokeColor=#82b366;" parent="1" vertex="1">
          <mxGeometry x="-20" y="630" width="80" height="40" as="geometry" />
        </mxCell>
        <mxCell id="mlWRB64zD0FW1h9pcZ2g-19" value="" style="endArrow=classic;html=1;rounded=0;" parent="1" source="mlWRB64zD0FW1h9pcZ2g-18" target="gFcMFYdsU8Flf4kH9CEn-3" edge="1">
          <mxGeometry width="50" height="50" relative="1" as="geometry">
            <mxPoint x="430" y="530" as="sourcePoint" />
            <mxPoint x="480" y="480" as="targetPoint" />
          </mxGeometry>
        </mxCell>
        <mxCell id="mlWRB64zD0FW1h9pcZ2g-20" value="" style="endArrow=doubleBlock;html=1;rounded=0;endFill=1;" parent="1" source="mlWRB64zD0FW1h9pcZ2g-18" target="mlWRB64zD0FW1h9pcZ2g-13" edge="1">
          <mxGeometry width="50" height="50" relative="1" as="geometry">
            <mxPoint x="430" y="530" as="sourcePoint" />
            <mxPoint x="480" y="480" as="targetPoint" />
          </mxGeometry>
        </mxCell>
        <mxCell id="gFcMFYdsU8Flf4kH9CEn-13" value="Название" style="ellipse;whiteSpace=wrap;html=1;fillColor=#fff2cc;strokeColor=#d6b656;" parent="1" vertex="1">
          <mxGeometry x="390" width="120" height="40" as="geometry" />
        </mxCell>
        <mxCell id="mlWRB64zD0FW1h9pcZ2g-35" value="" style="group" parent="1" vertex="1" connectable="0">
          <mxGeometry x="100" y="-40" width="270" height="220" as="geometry" />
        </mxCell>
        <mxCell id="mlWRB64zD0FW1h9pcZ2g-29" value="" style="rounded=1;whiteSpace=wrap;html=1;fillColor=#ffe6cc;strokeColor=#d79b00;" parent="mlWRB64zD0FW1h9pcZ2g-35" vertex="1">
          <mxGeometry width="270" height="220" as="geometry" />
        </mxCell>
        <mxCell id="gFcMFYdsU8Flf4kH9CEn-52" value="Имя" style="ellipse;whiteSpace=wrap;html=1;fillColor=#fff2cc;strokeColor=#d6b656;" parent="mlWRB64zD0FW1h9pcZ2g-35" vertex="1">
          <mxGeometry x="10" y="110" width="120" height="40" as="geometry" />
        </mxCell>
        <mxCell id="gFcMFYdsU8Flf4kH9CEn-53" value="Фамилия" style="ellipse;whiteSpace=wrap;html=1;fillColor=#fff2cc;strokeColor=#d6b656;" parent="mlWRB64zD0FW1h9pcZ2g-35" vertex="1">
          <mxGeometry x="140" y="160" width="120" height="40" as="geometry" />
        </mxCell>
        <mxCell id="gFcMFYdsU8Flf4kH9CEn-71" value="Пароль" style="ellipse;whiteSpace=wrap;html=1;fillColor=#fff2cc;strokeColor=#d6b656;" parent="mlWRB64zD0FW1h9pcZ2g-35" vertex="1">
          <mxGeometry x="140" y="10" width="120" height="40" as="geometry" />
        </mxCell>
        <mxCell id="gFcMFYdsU8Flf4kH9CEn-72" value="Отчество" style="ellipse;whiteSpace=wrap;html=1;fillColor=#fff2cc;strokeColor=#d6b656;" parent="mlWRB64zD0FW1h9pcZ2g-35" vertex="1">
          <mxGeometry x="140" y="60" width="120" height="40" as="geometry" />
        </mxCell>
        <mxCell id="gFcMFYdsU8Flf4kH9CEn-73" value="Email" style="ellipse;whiteSpace=wrap;html=1;fillColor=#fff2cc;strokeColor=#d6b656;" parent="mlWRB64zD0FW1h9pcZ2g-35" vertex="1">
          <mxGeometry x="10" y="160" width="120" height="40" as="geometry" />
        </mxCell>
        <mxCell id="gFcMFYdsU8Flf4kH9CEn-74" value="Телефон" style="ellipse;whiteSpace=wrap;html=1;fillColor=#fff2cc;strokeColor=#d6b656;" parent="mlWRB64zD0FW1h9pcZ2g-35" vertex="1">
          <mxGeometry x="140" y="110" width="120" height="40" as="geometry" />
        </mxCell>
        <mxCell id="gFcMFYdsU8Flf4kH9CEn-76" value="Токен" style="ellipse;whiteSpace=wrap;html=1;fillColor=#fff2cc;strokeColor=#d6b656;" parent="mlWRB64zD0FW1h9pcZ2g-35" vertex="1">
          <mxGeometry x="10" y="10" width="120" height="40" as="geometry" />
        </mxCell>
        <mxCell id="5jlYNDl5H1M3J7ju9dHJ-1" value="Логин" style="ellipse;whiteSpace=wrap;html=1;fillColor=#fff2cc;strokeColor=#d6b656;" parent="mlWRB64zD0FW1h9pcZ2g-35" vertex="1">
          <mxGeometry x="10" y="60" width="120" height="40" as="geometry" />
        </mxCell>
        <mxCell id="mlWRB64zD0FW1h9pcZ2g-36" value="" style="endArrow=none;html=1;rounded=0;" parent="1" source="mlWRB64zD0FW1h9pcZ2g-29" target="gFcMFYdsU8Flf4kH9CEn-2" edge="1">
          <mxGeometry width="50" height="50" relative="1" as="geometry">
            <mxPoint x="430" y="330" as="sourcePoint" />
            <mxPoint x="480" y="280" as="targetPoint" />
          </mxGeometry>
        </mxCell>
        <mxCell id="mlWRB64zD0FW1h9pcZ2g-37" value="" style="endArrow=none;html=1;rounded=0;" parent="1" source="gFcMFYdsU8Flf4kH9CEn-11" target="gFcMFYdsU8Flf4kH9CEn-13" edge="1">
          <mxGeometry width="50" height="50" relative="1" as="geometry">
            <mxPoint x="430" y="330" as="sourcePoint" />
            <mxPoint x="480" y="280" as="targetPoint" />
          </mxGeometry>
        </mxCell>
        <mxCell id="mlWRB64zD0FW1h9pcZ2g-42" value="Код" style="ellipse;whiteSpace=wrap;html=1;fillColor=#fff2cc;strokeColor=#d6b656;" parent="1" vertex="1">
          <mxGeometry x="530" y="60" width="120" height="40" as="geometry" />
        </mxCell>
        <mxCell id="mlWRB64zD0FW1h9pcZ2g-43" value="" style="endArrow=none;html=1;rounded=0;" parent="1" source="gFcMFYdsU8Flf4kH9CEn-11" target="mlWRB64zD0FW1h9pcZ2g-42" edge="1">
          <mxGeometry width="50" height="50" relative="1" as="geometry">
            <mxPoint x="460" y="70" as="sourcePoint" />
            <mxPoint x="460" y="50" as="targetPoint" />
          </mxGeometry>
        </mxCell>
        <mxCell id="mlWRB64zD0FW1h9pcZ2g-45" value="" style="group" parent="1" vertex="1" connectable="0">
          <mxGeometry x="555" y="430" width="290" height="210" as="geometry" />
        </mxCell>
        <mxCell id="mlWRB64zD0FW1h9pcZ2g-44" value="" style="rounded=1;whiteSpace=wrap;html=1;fillColor=#ffe6cc;strokeColor=#d79b00;" parent="mlWRB64zD0FW1h9pcZ2g-45" vertex="1">
          <mxGeometry width="290" height="170" as="geometry" />
        </mxCell>
        <mxCell id="gFcMFYdsU8Flf4kH9CEn-62" value="Название" style="ellipse;whiteSpace=wrap;html=1;fillColor=#fff2cc;strokeColor=#d6b656;" parent="mlWRB64zD0FW1h9pcZ2g-45" vertex="1">
          <mxGeometry x="5" y="10" width="120" height="40" as="geometry" />
        </mxCell>
        <mxCell id="gFcMFYdsU8Flf4kH9CEn-63" value="Цена" style="ellipse;whiteSpace=wrap;html=1;fillColor=#fff2cc;strokeColor=#d6b656;" parent="mlWRB64zD0FW1h9pcZ2g-45" vertex="1">
          <mxGeometry x="5" y="60" width="120" height="40" as="geometry" />
        </mxCell>
        <mxCell id="gFcMFYdsU8Flf4kH9CEn-64" value="Количество" style="ellipse;whiteSpace=wrap;html=1;fillColor=#fff2cc;strokeColor=#d6b656;" parent="mlWRB64zD0FW1h9pcZ2g-45" vertex="1">
          <mxGeometry x="150" y="60" width="120" height="40" as="geometry" />
        </mxCell>
        <mxCell id="gFcMFYdsU8Flf4kH9CEn-65" value="Описание" style="ellipse;whiteSpace=wrap;html=1;fillColor=#fff2cc;strokeColor=#d6b656;" parent="mlWRB64zD0FW1h9pcZ2g-45" vertex="1">
          <mxGeometry x="80" y="110" width="120" height="40" as="geometry" />
        </mxCell>
        <mxCell id="mlWRB64zD0FW1h9pcZ2g-24" value="Путь" style="ellipse;whiteSpace=wrap;html=1;fillColor=#fff2cc;strokeColor=#d6b656;" parent="mlWRB64zD0FW1h9pcZ2g-45" vertex="1">
          <mxGeometry x="150" y="10" width="120" height="40" as="geometry" />
        </mxCell>
        <mxCell id="mlWRB64zD0FW1h9pcZ2g-46" value="" style="endArrow=none;html=1;rounded=0;" parent="1" source="gFcMFYdsU8Flf4kH9CEn-3" target="mlWRB64zD0FW1h9pcZ2g-44" edge="1">
          <mxGeometry width="50" height="50" relative="1" as="geometry">
            <mxPoint x="430" y="430" as="sourcePoint" />
            <mxPoint x="480" y="380" as="targetPoint" />
          </mxGeometry>
        </mxCell>
        <mxCell id="mlWRB64zD0FW1h9pcZ2g-49" value="" style="endArrow=none;html=1;rounded=0;" parent="1" source="gFcMFYdsU8Flf4kH9CEn-8" target="mlWRB64zD0FW1h9pcZ2g-48" edge="1">
          <mxGeometry width="50" height="50" relative="1" as="geometry">
            <mxPoint x="630" y="330" as="sourcePoint" />
            <mxPoint x="1010" y="260" as="targetPoint" />
          </mxGeometry>
        </mxCell>
        <mxCell id="mlWRB64zD0FW1h9pcZ2g-50" value="" style="group" parent="1" vertex="1" connectable="0">
          <mxGeometry x="575" y="120" width="270" height="60" as="geometry" />
        </mxCell>
        <mxCell id="mlWRB64zD0FW1h9pcZ2g-48" value="" style="rounded=1;whiteSpace=wrap;html=1;fillColor=#ffe6cc;strokeColor=#d79b00;" parent="mlWRB64zD0FW1h9pcZ2g-50" vertex="1">
          <mxGeometry width="270" height="60" as="geometry" />
        </mxCell>
        <mxCell id="gFcMFYdsU8Flf4kH9CEn-56" value="Текст" style="ellipse;whiteSpace=wrap;html=1;fillColor=#fff2cc;strokeColor=#d6b656;" parent="mlWRB64zD0FW1h9pcZ2g-50" vertex="1">
          <mxGeometry x="140" y="10" width="120" height="40" as="geometry" />
        </mxCell>
        <mxCell id="1Uj6QFUkzFmfSTjhcTgT-1" value="Оценка" style="ellipse;whiteSpace=wrap;html=1;fillColor=#fff2cc;strokeColor=#d6b656;" parent="mlWRB64zD0FW1h9pcZ2g-50" vertex="1">
          <mxGeometry x="10" y="10" width="120" height="40" as="geometry" />
        </mxCell>
      </root>
    </mxGraphModel>
  </diagram>
  <diagram id="5xThkabX25R8TJLPgLt_" name="ЛМ">
    <mxGraphModel dx="2245" dy="820" grid="1" gridSize="10" guides="1" tooltips="1" connect="1" arrows="1" fold="1" page="1" pageScale="1" pageWidth="827" pageHeight="1169" math="0" shadow="0">
      <root>
        <mxCell id="0" />
        <mxCell id="1" parent="0" />
        <mxCell id="uixmEJtQYE6XZ1nQol0m-1" value="roles" style="shape=table;startSize=30;container=1;collapsible=1;childLayout=tableLayout;fixedRows=1;rowLines=0;fontStyle=1;align=center;resizeLast=1;html=1;fillColor=#dae8fc;strokeColor=#6c8ebf;" parent="1" vertex="1">
          <mxGeometry x="70" y="554.5" width="180" height="120" as="geometry" />
        </mxCell>
        <mxCell id="uixmEJtQYE6XZ1nQol0m-2" value="" style="shape=tableRow;horizontal=0;startSize=0;swimlaneHead=0;swimlaneBody=0;fillColor=none;collapsible=0;dropTarget=0;points=[[0,0.5],[1,0.5]];portConstraint=eastwest;top=0;left=0;right=0;bottom=1;" parent="uixmEJtQYE6XZ1nQol0m-1" vertex="1">
          <mxGeometry y="30" width="180" height="30" as="geometry" />
        </mxCell>
        <mxCell id="uixmEJtQYE6XZ1nQol0m-3" value="PK" style="shape=partialRectangle;connectable=0;fillColor=none;top=0;left=0;bottom=0;right=0;fontStyle=1;overflow=hidden;whiteSpace=wrap;html=1;" parent="uixmEJtQYE6XZ1nQol0m-2" vertex="1">
          <mxGeometry width="30" height="30" as="geometry">
            <mxRectangle width="30" height="30" as="alternateBounds" />
          </mxGeometry>
        </mxCell>
        <mxCell id="uixmEJtQYE6XZ1nQol0m-4" value="id" style="shape=partialRectangle;connectable=0;fillColor=none;top=0;left=0;bottom=0;right=0;align=left;spacingLeft=6;fontStyle=5;overflow=hidden;whiteSpace=wrap;html=1;" parent="uixmEJtQYE6XZ1nQol0m-2" vertex="1">
          <mxGeometry x="30" width="150" height="30" as="geometry">
            <mxRectangle width="150" height="30" as="alternateBounds" />
          </mxGeometry>
        </mxCell>
        <mxCell id="uixmEJtQYE6XZ1nQol0m-5" value="" style="shape=tableRow;horizontal=0;startSize=0;swimlaneHead=0;swimlaneBody=0;fillColor=none;collapsible=0;dropTarget=0;points=[[0,0.5],[1,0.5]];portConstraint=eastwest;top=0;left=0;right=0;bottom=0;" parent="uixmEJtQYE6XZ1nQol0m-1" vertex="1">
          <mxGeometry y="60" width="180" height="30" as="geometry" />
        </mxCell>
        <mxCell id="uixmEJtQYE6XZ1nQol0m-6" value="" style="shape=partialRectangle;connectable=0;fillColor=none;top=0;left=0;bottom=0;right=0;editable=1;overflow=hidden;whiteSpace=wrap;html=1;" parent="uixmEJtQYE6XZ1nQol0m-5" vertex="1">
          <mxGeometry width="30" height="30" as="geometry">
            <mxRectangle width="30" height="30" as="alternateBounds" />
          </mxGeometry>
        </mxCell>
        <mxCell id="uixmEJtQYE6XZ1nQol0m-7" value="name" style="shape=partialRectangle;connectable=0;fillColor=none;top=0;left=0;bottom=0;right=0;align=left;spacingLeft=6;overflow=hidden;whiteSpace=wrap;html=1;" parent="uixmEJtQYE6XZ1nQol0m-5" vertex="1">
          <mxGeometry x="30" width="150" height="30" as="geometry">
            <mxRectangle width="150" height="30" as="alternateBounds" />
          </mxGeometry>
        </mxCell>
        <mxCell id="5QtFYwSILm9UZeChAxwK-1" style="shape=tableRow;horizontal=0;startSize=0;swimlaneHead=0;swimlaneBody=0;fillColor=none;collapsible=0;dropTarget=0;points=[[0,0.5],[1,0.5]];portConstraint=eastwest;top=0;left=0;right=0;bottom=0;" parent="uixmEJtQYE6XZ1nQol0m-1" vertex="1">
          <mxGeometry y="90" width="180" height="30" as="geometry" />
        </mxCell>
        <mxCell id="5QtFYwSILm9UZeChAxwK-2" style="shape=partialRectangle;connectable=0;fillColor=none;top=0;left=0;bottom=0;right=0;editable=1;overflow=hidden;whiteSpace=wrap;html=1;" parent="5QtFYwSILm9UZeChAxwK-1" vertex="1">
          <mxGeometry width="30" height="30" as="geometry">
            <mxRectangle width="30" height="30" as="alternateBounds" />
          </mxGeometry>
        </mxCell>
        <mxCell id="5QtFYwSILm9UZeChAxwK-3" value="code" style="shape=partialRectangle;connectable=0;fillColor=none;top=0;left=0;bottom=0;right=0;align=left;spacingLeft=6;overflow=hidden;whiteSpace=wrap;html=1;" parent="5QtFYwSILm9UZeChAxwK-1" vertex="1">
          <mxGeometry x="30" width="150" height="30" as="geometry">
            <mxRectangle width="150" height="30" as="alternateBounds" />
          </mxGeometry>
        </mxCell>
        <mxCell id="uixmEJtQYE6XZ1nQol0m-14" value="users" style="shape=table;startSize=30;container=1;collapsible=1;childLayout=tableLayout;fixedRows=1;rowLines=0;fontStyle=1;align=center;resizeLast=1;html=1;fillColor=#dae8fc;strokeColor=#6c8ebf;" parent="1" vertex="1">
          <mxGeometry x="70" y="180" width="180" height="360" as="geometry" />
        </mxCell>
        <mxCell id="uixmEJtQYE6XZ1nQol0m-15" value="" style="shape=tableRow;horizontal=0;startSize=0;swimlaneHead=0;swimlaneBody=0;fillColor=none;collapsible=0;dropTarget=0;points=[[0,0.5],[1,0.5]];portConstraint=eastwest;top=0;left=0;right=0;bottom=1;" parent="uixmEJtQYE6XZ1nQol0m-14" vertex="1">
          <mxGeometry y="30" width="180" height="30" as="geometry" />
        </mxCell>
        <mxCell id="uixmEJtQYE6XZ1nQol0m-16" value="PK" style="shape=partialRectangle;connectable=0;fillColor=none;top=0;left=0;bottom=0;right=0;fontStyle=1;overflow=hidden;whiteSpace=wrap;html=1;" parent="uixmEJtQYE6XZ1nQol0m-15" vertex="1">
          <mxGeometry width="30" height="30" as="geometry">
            <mxRectangle width="30" height="30" as="alternateBounds" />
          </mxGeometry>
        </mxCell>
        <mxCell id="uixmEJtQYE6XZ1nQol0m-17" value="id" style="shape=partialRectangle;connectable=0;fillColor=none;top=0;left=0;bottom=0;right=0;align=left;spacingLeft=6;fontStyle=5;overflow=hidden;whiteSpace=wrap;html=1;" parent="uixmEJtQYE6XZ1nQol0m-15" vertex="1">
          <mxGeometry x="30" width="150" height="30" as="geometry">
            <mxRectangle width="150" height="30" as="alternateBounds" />
          </mxGeometry>
        </mxCell>
        <mxCell id="uixmEJtQYE6XZ1nQol0m-18" value="" style="shape=tableRow;horizontal=0;startSize=0;swimlaneHead=0;swimlaneBody=0;fillColor=none;collapsible=0;dropTarget=0;points=[[0,0.5],[1,0.5]];portConstraint=eastwest;top=0;left=0;right=0;bottom=0;" parent="uixmEJtQYE6XZ1nQol0m-14" vertex="1">
          <mxGeometry y="60" width="180" height="30" as="geometry" />
        </mxCell>
        <mxCell id="uixmEJtQYE6XZ1nQol0m-19" value="" style="shape=partialRectangle;connectable=0;fillColor=none;top=0;left=0;bottom=0;right=0;editable=1;overflow=hidden;whiteSpace=wrap;html=1;" parent="uixmEJtQYE6XZ1nQol0m-18" vertex="1">
          <mxGeometry width="30" height="30" as="geometry">
            <mxRectangle width="30" height="30" as="alternateBounds" />
          </mxGeometry>
        </mxCell>
        <mxCell id="uixmEJtQYE6XZ1nQol0m-20" value="name" style="shape=partialRectangle;connectable=0;fillColor=none;top=0;left=0;bottom=0;right=0;align=left;spacingLeft=6;overflow=hidden;whiteSpace=wrap;html=1;" parent="uixmEJtQYE6XZ1nQol0m-18" vertex="1">
          <mxGeometry x="30" width="150" height="30" as="geometry">
            <mxRectangle width="150" height="30" as="alternateBounds" />
          </mxGeometry>
        </mxCell>
        <mxCell id="jNbegEnLuQnwYzR3SwNB-1" style="shape=tableRow;horizontal=0;startSize=0;swimlaneHead=0;swimlaneBody=0;fillColor=none;collapsible=0;dropTarget=0;points=[[0,0.5],[1,0.5]];portConstraint=eastwest;top=0;left=0;right=0;bottom=0;" parent="uixmEJtQYE6XZ1nQol0m-14" vertex="1">
          <mxGeometry y="90" width="180" height="30" as="geometry" />
        </mxCell>
        <mxCell id="jNbegEnLuQnwYzR3SwNB-2" style="shape=partialRectangle;connectable=0;fillColor=none;top=0;left=0;bottom=0;right=0;editable=1;overflow=hidden;whiteSpace=wrap;html=1;" parent="jNbegEnLuQnwYzR3SwNB-1" vertex="1">
          <mxGeometry width="30" height="30" as="geometry">
            <mxRectangle width="30" height="30" as="alternateBounds" />
          </mxGeometry>
        </mxCell>
        <mxCell id="jNbegEnLuQnwYzR3SwNB-3" value="surname" style="shape=partialRectangle;connectable=0;fillColor=none;top=0;left=0;bottom=0;right=0;align=left;spacingLeft=6;overflow=hidden;whiteSpace=wrap;html=1;" parent="jNbegEnLuQnwYzR3SwNB-1" vertex="1">
          <mxGeometry x="30" width="150" height="30" as="geometry">
            <mxRectangle width="150" height="30" as="alternateBounds" />
          </mxGeometry>
        </mxCell>
        <mxCell id="jNbegEnLuQnwYzR3SwNB-4" style="shape=tableRow;horizontal=0;startSize=0;swimlaneHead=0;swimlaneBody=0;fillColor=none;collapsible=0;dropTarget=0;points=[[0,0.5],[1,0.5]];portConstraint=eastwest;top=0;left=0;right=0;bottom=0;" parent="uixmEJtQYE6XZ1nQol0m-14" vertex="1">
          <mxGeometry y="120" width="180" height="30" as="geometry" />
        </mxCell>
        <mxCell id="jNbegEnLuQnwYzR3SwNB-5" style="shape=partialRectangle;connectable=0;fillColor=none;top=0;left=0;bottom=0;right=0;editable=1;overflow=hidden;whiteSpace=wrap;html=1;" parent="jNbegEnLuQnwYzR3SwNB-4" vertex="1">
          <mxGeometry width="30" height="30" as="geometry">
            <mxRectangle width="30" height="30" as="alternateBounds" />
          </mxGeometry>
        </mxCell>
        <mxCell id="jNbegEnLuQnwYzR3SwNB-6" value="patronymic" style="shape=partialRectangle;connectable=0;fillColor=none;top=0;left=0;bottom=0;right=0;align=left;spacingLeft=6;overflow=hidden;whiteSpace=wrap;html=1;" parent="jNbegEnLuQnwYzR3SwNB-4" vertex="1">
          <mxGeometry x="30" width="150" height="30" as="geometry">
            <mxRectangle width="150" height="30" as="alternateBounds" />
          </mxGeometry>
        </mxCell>
        <mxCell id="jNbegEnLuQnwYzR3SwNB-7" style="shape=tableRow;horizontal=0;startSize=0;swimlaneHead=0;swimlaneBody=0;fillColor=none;collapsible=0;dropTarget=0;points=[[0,0.5],[1,0.5]];portConstraint=eastwest;top=0;left=0;right=0;bottom=0;" parent="uixmEJtQYE6XZ1nQol0m-14" vertex="1">
          <mxGeometry y="150" width="180" height="30" as="geometry" />
        </mxCell>
        <mxCell id="jNbegEnLuQnwYzR3SwNB-8" style="shape=partialRectangle;connectable=0;fillColor=none;top=0;left=0;bottom=0;right=0;editable=1;overflow=hidden;whiteSpace=wrap;html=1;" parent="jNbegEnLuQnwYzR3SwNB-7" vertex="1">
          <mxGeometry width="30" height="30" as="geometry">
            <mxRectangle width="30" height="30" as="alternateBounds" />
          </mxGeometry>
        </mxCell>
        <mxCell id="jNbegEnLuQnwYzR3SwNB-9" value="login" style="shape=partialRectangle;connectable=0;fillColor=none;top=0;left=0;bottom=0;right=0;align=left;spacingLeft=6;overflow=hidden;whiteSpace=wrap;html=1;" parent="jNbegEnLuQnwYzR3SwNB-7" vertex="1">
          <mxGeometry x="30" width="150" height="30" as="geometry">
            <mxRectangle width="150" height="30" as="alternateBounds" />
          </mxGeometry>
        </mxCell>
        <mxCell id="jNbegEnLuQnwYzR3SwNB-10" style="shape=tableRow;horizontal=0;startSize=0;swimlaneHead=0;swimlaneBody=0;fillColor=none;collapsible=0;dropTarget=0;points=[[0,0.5],[1,0.5]];portConstraint=eastwest;top=0;left=0;right=0;bottom=0;" parent="uixmEJtQYE6XZ1nQol0m-14" vertex="1">
          <mxGeometry y="180" width="180" height="30" as="geometry" />
        </mxCell>
        <mxCell id="jNbegEnLuQnwYzR3SwNB-11" style="shape=partialRectangle;connectable=0;fillColor=none;top=0;left=0;bottom=0;right=0;editable=1;overflow=hidden;whiteSpace=wrap;html=1;" parent="jNbegEnLuQnwYzR3SwNB-10" vertex="1">
          <mxGeometry width="30" height="30" as="geometry">
            <mxRectangle width="30" height="30" as="alternateBounds" />
          </mxGeometry>
        </mxCell>
        <mxCell id="jNbegEnLuQnwYzR3SwNB-12" value="password" style="shape=partialRectangle;connectable=0;fillColor=none;top=0;left=0;bottom=0;right=0;align=left;spacingLeft=6;overflow=hidden;whiteSpace=wrap;html=1;" parent="jNbegEnLuQnwYzR3SwNB-10" vertex="1">
          <mxGeometry x="30" width="150" height="30" as="geometry">
            <mxRectangle width="150" height="30" as="alternateBounds" />
          </mxGeometry>
        </mxCell>
        <mxCell id="jNbegEnLuQnwYzR3SwNB-16" style="shape=tableRow;horizontal=0;startSize=0;swimlaneHead=0;swimlaneBody=0;fillColor=none;collapsible=0;dropTarget=0;points=[[0,0.5],[1,0.5]];portConstraint=eastwest;top=0;left=0;right=0;bottom=0;" parent="uixmEJtQYE6XZ1nQol0m-14" vertex="1">
          <mxGeometry y="210" width="180" height="30" as="geometry" />
        </mxCell>
        <mxCell id="jNbegEnLuQnwYzR3SwNB-17" style="shape=partialRectangle;connectable=0;fillColor=none;top=0;left=0;bottom=0;right=0;editable=1;overflow=hidden;whiteSpace=wrap;html=1;" parent="jNbegEnLuQnwYzR3SwNB-16" vertex="1">
          <mxGeometry width="30" height="30" as="geometry">
            <mxRectangle width="30" height="30" as="alternateBounds" />
          </mxGeometry>
        </mxCell>
        <mxCell id="jNbegEnLuQnwYzR3SwNB-18" value="email" style="shape=partialRectangle;connectable=0;fillColor=none;top=0;left=0;bottom=0;right=0;align=left;spacingLeft=6;overflow=hidden;whiteSpace=wrap;html=1;" parent="jNbegEnLuQnwYzR3SwNB-16" vertex="1">
          <mxGeometry x="30" width="150" height="30" as="geometry">
            <mxRectangle width="150" height="30" as="alternateBounds" />
          </mxGeometry>
        </mxCell>
        <mxCell id="jNbegEnLuQnwYzR3SwNB-19" style="shape=tableRow;horizontal=0;startSize=0;swimlaneHead=0;swimlaneBody=0;fillColor=none;collapsible=0;dropTarget=0;points=[[0,0.5],[1,0.5]];portConstraint=eastwest;top=0;left=0;right=0;bottom=0;" parent="uixmEJtQYE6XZ1nQol0m-14" vertex="1">
          <mxGeometry y="240" width="180" height="30" as="geometry" />
        </mxCell>
        <mxCell id="jNbegEnLuQnwYzR3SwNB-20" style="shape=partialRectangle;connectable=0;fillColor=none;top=0;left=0;bottom=0;right=0;editable=1;overflow=hidden;whiteSpace=wrap;html=1;" parent="jNbegEnLuQnwYzR3SwNB-19" vertex="1">
          <mxGeometry width="30" height="30" as="geometry">
            <mxRectangle width="30" height="30" as="alternateBounds" />
          </mxGeometry>
        </mxCell>
        <mxCell id="jNbegEnLuQnwYzR3SwNB-21" value="telephone" style="shape=partialRectangle;connectable=0;fillColor=none;top=0;left=0;bottom=0;right=0;align=left;spacingLeft=6;overflow=hidden;whiteSpace=wrap;html=1;" parent="jNbegEnLuQnwYzR3SwNB-19" vertex="1">
          <mxGeometry x="30" width="150" height="30" as="geometry">
            <mxRectangle width="150" height="30" as="alternateBounds" />
          </mxGeometry>
        </mxCell>
        <mxCell id="jNbegEnLuQnwYzR3SwNB-22" style="shape=tableRow;horizontal=0;startSize=0;swimlaneHead=0;swimlaneBody=0;fillColor=none;collapsible=0;dropTarget=0;points=[[0,0.5],[1,0.5]];portConstraint=eastwest;top=0;left=0;right=0;bottom=0;" parent="uixmEJtQYE6XZ1nQol0m-14" vertex="1">
          <mxGeometry y="270" width="180" height="30" as="geometry" />
        </mxCell>
        <mxCell id="jNbegEnLuQnwYzR3SwNB-23" style="shape=partialRectangle;connectable=0;fillColor=none;top=0;left=0;bottom=0;right=0;editable=1;overflow=hidden;whiteSpace=wrap;html=1;" parent="jNbegEnLuQnwYzR3SwNB-22" vertex="1">
          <mxGeometry width="30" height="30" as="geometry">
            <mxRectangle width="30" height="30" as="alternateBounds" />
          </mxGeometry>
        </mxCell>
        <mxCell id="jNbegEnLuQnwYzR3SwNB-24" value="api_token" style="shape=partialRectangle;connectable=0;fillColor=none;top=0;left=0;bottom=0;right=0;align=left;spacingLeft=6;overflow=hidden;whiteSpace=wrap;html=1;" parent="jNbegEnLuQnwYzR3SwNB-22" vertex="1">
          <mxGeometry x="30" width="150" height="30" as="geometry">
            <mxRectangle width="150" height="30" as="alternateBounds" />
          </mxGeometry>
        </mxCell>
        <mxCell id="5QtFYwSILm9UZeChAxwK-77" style="shape=tableRow;horizontal=0;startSize=0;swimlaneHead=0;swimlaneBody=0;fillColor=none;collapsible=0;dropTarget=0;points=[[0,0.5],[1,0.5]];portConstraint=eastwest;top=0;left=0;right=0;bottom=0;" parent="uixmEJtQYE6XZ1nQol0m-14" vertex="1">
          <mxGeometry y="300" width="180" height="30" as="geometry" />
        </mxCell>
        <mxCell id="5QtFYwSILm9UZeChAxwK-78" value="FK" style="shape=partialRectangle;connectable=0;fillColor=none;top=0;left=0;bottom=0;right=0;editable=1;overflow=hidden;whiteSpace=wrap;html=1;" parent="5QtFYwSILm9UZeChAxwK-77" vertex="1">
          <mxGeometry width="30" height="30" as="geometry">
            <mxRectangle width="30" height="30" as="alternateBounds" />
          </mxGeometry>
        </mxCell>
        <mxCell id="5QtFYwSILm9UZeChAxwK-79" value="shift_id" style="shape=partialRectangle;connectable=0;fillColor=none;top=0;left=0;bottom=0;right=0;align=left;spacingLeft=6;overflow=hidden;whiteSpace=wrap;html=1;" parent="5QtFYwSILm9UZeChAxwK-77" vertex="1">
          <mxGeometry x="30" width="150" height="30" as="geometry">
            <mxRectangle width="150" height="30" as="alternateBounds" />
          </mxGeometry>
        </mxCell>
        <mxCell id="a321mZ3WpodQljg_TV5I-1" style="shape=tableRow;horizontal=0;startSize=0;swimlaneHead=0;swimlaneBody=0;fillColor=none;collapsible=0;dropTarget=0;points=[[0,0.5],[1,0.5]];portConstraint=eastwest;top=0;left=0;right=0;bottom=0;" parent="uixmEJtQYE6XZ1nQol0m-14" vertex="1">
          <mxGeometry y="330" width="180" height="30" as="geometry" />
        </mxCell>
        <mxCell id="a321mZ3WpodQljg_TV5I-2" value="FK" style="shape=partialRectangle;connectable=0;fillColor=none;top=0;left=0;bottom=0;right=0;editable=1;overflow=hidden;whiteSpace=wrap;html=1;" parent="a321mZ3WpodQljg_TV5I-1" vertex="1">
          <mxGeometry width="30" height="30" as="geometry">
            <mxRectangle width="30" height="30" as="alternateBounds" />
          </mxGeometry>
        </mxCell>
        <mxCell id="a321mZ3WpodQljg_TV5I-3" value="role_id" style="shape=partialRectangle;connectable=0;fillColor=none;top=0;left=0;bottom=0;right=0;align=left;spacingLeft=6;overflow=hidden;whiteSpace=wrap;html=1;" parent="a321mZ3WpodQljg_TV5I-1" vertex="1">
          <mxGeometry x="30" width="150" height="30" as="geometry">
            <mxRectangle width="150" height="30" as="alternateBounds" />
          </mxGeometry>
        </mxCell>
        <mxCell id="75_w-cmR_LxVDjIkSdya-1" value="carts" style="shape=table;startSize=30;container=1;collapsible=1;childLayout=tableLayout;fixedRows=1;rowLines=0;fontStyle=1;align=center;resizeLast=1;html=1;fillColor=#dae8fc;strokeColor=#6c8ebf;" parent="1" vertex="1">
          <mxGeometry x="-220" y="420" width="180" height="150" as="geometry" />
        </mxCell>
        <mxCell id="75_w-cmR_LxVDjIkSdya-2" value="" style="shape=tableRow;horizontal=0;startSize=0;swimlaneHead=0;swimlaneBody=0;fillColor=none;collapsible=0;dropTarget=0;points=[[0,0.5],[1,0.5]];portConstraint=eastwest;top=0;left=0;right=0;bottom=1;" parent="75_w-cmR_LxVDjIkSdya-1" vertex="1">
          <mxGeometry y="30" width="180" height="30" as="geometry" />
        </mxCell>
        <mxCell id="75_w-cmR_LxVDjIkSdya-3" value="PK" style="shape=partialRectangle;connectable=0;fillColor=none;top=0;left=0;bottom=0;right=0;fontStyle=1;overflow=hidden;whiteSpace=wrap;html=1;" parent="75_w-cmR_LxVDjIkSdya-2" vertex="1">
          <mxGeometry width="30" height="30" as="geometry">
            <mxRectangle width="30" height="30" as="alternateBounds" />
          </mxGeometry>
        </mxCell>
        <mxCell id="75_w-cmR_LxVDjIkSdya-4" value="id" style="shape=partialRectangle;connectable=0;fillColor=none;top=0;left=0;bottom=0;right=0;align=left;spacingLeft=6;fontStyle=5;overflow=hidden;whiteSpace=wrap;html=1;" parent="75_w-cmR_LxVDjIkSdya-2" vertex="1">
          <mxGeometry x="30" width="150" height="30" as="geometry">
            <mxRectangle width="150" height="30" as="alternateBounds" />
          </mxGeometry>
        </mxCell>
        <mxCell id="75_w-cmR_LxVDjIkSdya-5" value="" style="shape=tableRow;horizontal=0;startSize=0;swimlaneHead=0;swimlaneBody=0;fillColor=none;collapsible=0;dropTarget=0;points=[[0,0.5],[1,0.5]];portConstraint=eastwest;top=0;left=0;right=0;bottom=0;" parent="75_w-cmR_LxVDjIkSdya-1" vertex="1">
          <mxGeometry y="60" width="180" height="30" as="geometry" />
        </mxCell>
        <mxCell id="75_w-cmR_LxVDjIkSdya-6" value="" style="shape=partialRectangle;connectable=0;fillColor=none;top=0;left=0;bottom=0;right=0;editable=1;overflow=hidden;whiteSpace=wrap;html=1;" parent="75_w-cmR_LxVDjIkSdya-5" vertex="1">
          <mxGeometry width="30" height="30" as="geometry">
            <mxRectangle width="30" height="30" as="alternateBounds" />
          </mxGeometry>
        </mxCell>
        <mxCell id="75_w-cmR_LxVDjIkSdya-7" value="quantity" style="shape=partialRectangle;connectable=0;fillColor=none;top=0;left=0;bottom=0;right=0;align=left;spacingLeft=6;overflow=hidden;whiteSpace=wrap;html=1;" parent="75_w-cmR_LxVDjIkSdya-5" vertex="1">
          <mxGeometry x="30" width="150" height="30" as="geometry">
            <mxRectangle width="150" height="30" as="alternateBounds" />
          </mxGeometry>
        </mxCell>
        <mxCell id="d38TOh63PZEw4yzTM0yV-1" style="shape=tableRow;horizontal=0;startSize=0;swimlaneHead=0;swimlaneBody=0;fillColor=none;collapsible=0;dropTarget=0;points=[[0,0.5],[1,0.5]];portConstraint=eastwest;top=0;left=0;right=0;bottom=0;" parent="75_w-cmR_LxVDjIkSdya-1" vertex="1">
          <mxGeometry y="90" width="180" height="30" as="geometry" />
        </mxCell>
        <mxCell id="d38TOh63PZEw4yzTM0yV-2" value="FK" style="shape=partialRectangle;connectable=0;fillColor=none;top=0;left=0;bottom=0;right=0;editable=1;overflow=hidden;whiteSpace=wrap;html=1;" parent="d38TOh63PZEw4yzTM0yV-1" vertex="1">
          <mxGeometry width="30" height="30" as="geometry">
            <mxRectangle width="30" height="30" as="alternateBounds" />
          </mxGeometry>
        </mxCell>
        <mxCell id="d38TOh63PZEw4yzTM0yV-3" value="user_id" style="shape=partialRectangle;connectable=0;fillColor=none;top=0;left=0;bottom=0;right=0;align=left;spacingLeft=6;overflow=hidden;whiteSpace=wrap;html=1;" parent="d38TOh63PZEw4yzTM0yV-1" vertex="1">
          <mxGeometry x="30" width="150" height="30" as="geometry">
            <mxRectangle width="150" height="30" as="alternateBounds" />
          </mxGeometry>
        </mxCell>
        <mxCell id="d38TOh63PZEw4yzTM0yV-4" style="shape=tableRow;horizontal=0;startSize=0;swimlaneHead=0;swimlaneBody=0;fillColor=none;collapsible=0;dropTarget=0;points=[[0,0.5],[1,0.5]];portConstraint=eastwest;top=0;left=0;right=0;bottom=0;" parent="75_w-cmR_LxVDjIkSdya-1" vertex="1">
          <mxGeometry y="120" width="180" height="30" as="geometry" />
        </mxCell>
        <mxCell id="d38TOh63PZEw4yzTM0yV-5" value="FK" style="shape=partialRectangle;connectable=0;fillColor=none;top=0;left=0;bottom=0;right=0;editable=1;overflow=hidden;whiteSpace=wrap;html=1;" parent="d38TOh63PZEw4yzTM0yV-4" vertex="1">
          <mxGeometry width="30" height="30" as="geometry">
            <mxRectangle width="30" height="30" as="alternateBounds" />
          </mxGeometry>
        </mxCell>
        <mxCell id="d38TOh63PZEw4yzTM0yV-6" value="product_id" style="shape=partialRectangle;connectable=0;fillColor=none;top=0;left=0;bottom=0;right=0;align=left;spacingLeft=6;overflow=hidden;whiteSpace=wrap;html=1;" parent="d38TOh63PZEw4yzTM0yV-4" vertex="1">
          <mxGeometry x="30" width="150" height="30" as="geometry">
            <mxRectangle width="150" height="30" as="alternateBounds" />
          </mxGeometry>
        </mxCell>
        <mxCell id="i76t4agvD032TVpXin_E-1" value="reviews" style="shape=table;startSize=30;container=1;collapsible=1;childLayout=tableLayout;fixedRows=1;rowLines=0;fontStyle=1;align=center;resizeLast=1;html=1;fillColor=#dae8fc;strokeColor=#6c8ebf;" parent="1" vertex="1">
          <mxGeometry x="310" y="495" width="180" height="180" as="geometry" />
        </mxCell>
        <mxCell id="i76t4agvD032TVpXin_E-2" value="" style="shape=tableRow;horizontal=0;startSize=0;swimlaneHead=0;swimlaneBody=0;fillColor=none;collapsible=0;dropTarget=0;points=[[0,0.5],[1,0.5]];portConstraint=eastwest;top=0;left=0;right=0;bottom=1;" parent="i76t4agvD032TVpXin_E-1" vertex="1">
          <mxGeometry y="30" width="180" height="30" as="geometry" />
        </mxCell>
        <mxCell id="i76t4agvD032TVpXin_E-3" value="PK" style="shape=partialRectangle;connectable=0;fillColor=none;top=0;left=0;bottom=0;right=0;fontStyle=1;overflow=hidden;whiteSpace=wrap;html=1;" parent="i76t4agvD032TVpXin_E-2" vertex="1">
          <mxGeometry width="30" height="30" as="geometry">
            <mxRectangle width="30" height="30" as="alternateBounds" />
          </mxGeometry>
        </mxCell>
        <mxCell id="i76t4agvD032TVpXin_E-4" value="id" style="shape=partialRectangle;connectable=0;fillColor=none;top=0;left=0;bottom=0;right=0;align=left;spacingLeft=6;fontStyle=5;overflow=hidden;whiteSpace=wrap;html=1;" parent="i76t4agvD032TVpXin_E-2" vertex="1">
          <mxGeometry x="30" width="150" height="30" as="geometry">
            <mxRectangle width="150" height="30" as="alternateBounds" />
          </mxGeometry>
        </mxCell>
        <mxCell id="ZCN_YDAFW1FY7Bg80C5E-7" style="shape=tableRow;horizontal=0;startSize=0;swimlaneHead=0;swimlaneBody=0;fillColor=none;collapsible=0;dropTarget=0;points=[[0,0.5],[1,0.5]];portConstraint=eastwest;top=0;left=0;right=0;bottom=0;" parent="i76t4agvD032TVpXin_E-1" vertex="1">
          <mxGeometry y="60" width="180" height="30" as="geometry" />
        </mxCell>
        <mxCell id="ZCN_YDAFW1FY7Bg80C5E-8" style="shape=partialRectangle;connectable=0;fillColor=none;top=0;left=0;bottom=0;right=0;editable=1;overflow=hidden;whiteSpace=wrap;html=1;" parent="ZCN_YDAFW1FY7Bg80C5E-7" vertex="1">
          <mxGeometry width="30" height="30" as="geometry">
            <mxRectangle width="30" height="30" as="alternateBounds" />
          </mxGeometry>
        </mxCell>
        <mxCell id="ZCN_YDAFW1FY7Bg80C5E-9" value="rating" style="shape=partialRectangle;connectable=0;fillColor=none;top=0;left=0;bottom=0;right=0;align=left;spacingLeft=6;overflow=hidden;whiteSpace=wrap;html=1;" parent="ZCN_YDAFW1FY7Bg80C5E-7" vertex="1">
          <mxGeometry x="30" width="150" height="30" as="geometry">
            <mxRectangle width="150" height="30" as="alternateBounds" />
          </mxGeometry>
        </mxCell>
        <mxCell id="i76t4agvD032TVpXin_E-5" value="" style="shape=tableRow;horizontal=0;startSize=0;swimlaneHead=0;swimlaneBody=0;fillColor=none;collapsible=0;dropTarget=0;points=[[0,0.5],[1,0.5]];portConstraint=eastwest;top=0;left=0;right=0;bottom=0;" parent="i76t4agvD032TVpXin_E-1" vertex="1">
          <mxGeometry y="90" width="180" height="30" as="geometry" />
        </mxCell>
        <mxCell id="i76t4agvD032TVpXin_E-6" value="" style="shape=partialRectangle;connectable=0;fillColor=none;top=0;left=0;bottom=0;right=0;editable=1;overflow=hidden;whiteSpace=wrap;html=1;" parent="i76t4agvD032TVpXin_E-5" vertex="1">
          <mxGeometry width="30" height="30" as="geometry">
            <mxRectangle width="30" height="30" as="alternateBounds" />
          </mxGeometry>
        </mxCell>
        <mxCell id="i76t4agvD032TVpXin_E-7" value="description" style="shape=partialRectangle;connectable=0;fillColor=none;top=0;left=0;bottom=0;right=0;align=left;spacingLeft=6;overflow=hidden;whiteSpace=wrap;html=1;" parent="i76t4agvD032TVpXin_E-5" vertex="1">
          <mxGeometry x="30" width="150" height="30" as="geometry">
            <mxRectangle width="150" height="30" as="alternateBounds" />
          </mxGeometry>
        </mxCell>
        <mxCell id="6vxNORHovWRSIklVcauw-1" style="shape=tableRow;horizontal=0;startSize=0;swimlaneHead=0;swimlaneBody=0;fillColor=none;collapsible=0;dropTarget=0;points=[[0,0.5],[1,0.5]];portConstraint=eastwest;top=0;left=0;right=0;bottom=0;" parent="i76t4agvD032TVpXin_E-1" vertex="1">
          <mxGeometry y="120" width="180" height="30" as="geometry" />
        </mxCell>
        <mxCell id="6vxNORHovWRSIklVcauw-2" value="FK" style="shape=partialRectangle;connectable=0;fillColor=none;top=0;left=0;bottom=0;right=0;editable=1;overflow=hidden;whiteSpace=wrap;html=1;" parent="6vxNORHovWRSIklVcauw-1" vertex="1">
          <mxGeometry width="30" height="30" as="geometry">
            <mxRectangle width="30" height="30" as="alternateBounds" />
          </mxGeometry>
        </mxCell>
        <mxCell id="6vxNORHovWRSIklVcauw-3" value="user_id" style="shape=partialRectangle;connectable=0;fillColor=none;top=0;left=0;bottom=0;right=0;align=left;spacingLeft=6;overflow=hidden;whiteSpace=wrap;html=1;" parent="6vxNORHovWRSIklVcauw-1" vertex="1">
          <mxGeometry x="30" width="150" height="30" as="geometry">
            <mxRectangle width="150" height="30" as="alternateBounds" />
          </mxGeometry>
        </mxCell>
        <mxCell id="JoQhzspGebb99p7AvE2c-1" style="shape=tableRow;horizontal=0;startSize=0;swimlaneHead=0;swimlaneBody=0;fillColor=none;collapsible=0;dropTarget=0;points=[[0,0.5],[1,0.5]];portConstraint=eastwest;top=0;left=0;right=0;bottom=0;" parent="i76t4agvD032TVpXin_E-1" vertex="1">
          <mxGeometry y="150" width="180" height="30" as="geometry" />
        </mxCell>
        <mxCell id="JoQhzspGebb99p7AvE2c-2" value="FK" style="shape=partialRectangle;connectable=0;fillColor=none;top=0;left=0;bottom=0;right=0;editable=1;overflow=hidden;whiteSpace=wrap;html=1;" parent="JoQhzspGebb99p7AvE2c-1" vertex="1">
          <mxGeometry width="30" height="30" as="geometry">
            <mxRectangle width="30" height="30" as="alternateBounds" />
          </mxGeometry>
        </mxCell>
        <mxCell id="JoQhzspGebb99p7AvE2c-3" value="product_id" style="shape=partialRectangle;connectable=0;fillColor=none;top=0;left=0;bottom=0;right=0;align=left;spacingLeft=6;overflow=hidden;whiteSpace=wrap;html=1;" parent="JoQhzspGebb99p7AvE2c-1" vertex="1">
          <mxGeometry x="30" width="150" height="30" as="geometry">
            <mxRectangle width="150" height="30" as="alternateBounds" />
          </mxGeometry>
        </mxCell>
        <mxCell id="IqVpxbswGgKMmOnbDUEB-1" value="orders" style="shape=table;startSize=30;container=1;collapsible=1;childLayout=tableLayout;fixedRows=1;rowLines=0;fontStyle=1;align=center;resizeLast=1;html=1;fillColor=#dae8fc;strokeColor=#6c8ebf;" parent="1" vertex="1">
          <mxGeometry x="360" y="240" width="180" height="210" as="geometry" />
        </mxCell>
        <mxCell id="IqVpxbswGgKMmOnbDUEB-2" value="" style="shape=tableRow;horizontal=0;startSize=0;swimlaneHead=0;swimlaneBody=0;fillColor=none;collapsible=0;dropTarget=0;points=[[0,0.5],[1,0.5]];portConstraint=eastwest;top=0;left=0;right=0;bottom=1;" parent="IqVpxbswGgKMmOnbDUEB-1" vertex="1">
          <mxGeometry y="30" width="180" height="30" as="geometry" />
        </mxCell>
        <mxCell id="IqVpxbswGgKMmOnbDUEB-3" value="PK" style="shape=partialRectangle;connectable=0;fillColor=none;top=0;left=0;bottom=0;right=0;fontStyle=1;overflow=hidden;whiteSpace=wrap;html=1;" parent="IqVpxbswGgKMmOnbDUEB-2" vertex="1">
          <mxGeometry width="30" height="30" as="geometry">
            <mxRectangle width="30" height="30" as="alternateBounds" />
          </mxGeometry>
        </mxCell>
        <mxCell id="IqVpxbswGgKMmOnbDUEB-4" value="id" style="shape=partialRectangle;connectable=0;fillColor=none;top=0;left=0;bottom=0;right=0;align=left;spacingLeft=6;fontStyle=5;overflow=hidden;whiteSpace=wrap;html=1;" parent="IqVpxbswGgKMmOnbDUEB-2" vertex="1">
          <mxGeometry x="30" width="150" height="30" as="geometry">
            <mxRectangle width="150" height="30" as="alternateBounds" />
          </mxGeometry>
        </mxCell>
        <mxCell id="NNMmTfBoiPFqAdsevqg7-1" style="shape=tableRow;horizontal=0;startSize=0;swimlaneHead=0;swimlaneBody=0;fillColor=none;collapsible=0;dropTarget=0;points=[[0,0.5],[1,0.5]];portConstraint=eastwest;top=0;left=0;right=0;bottom=0;" parent="IqVpxbswGgKMmOnbDUEB-1" vertex="1">
          <mxGeometry y="60" width="180" height="30" as="geometry" />
        </mxCell>
        <mxCell id="NNMmTfBoiPFqAdsevqg7-2" style="shape=partialRectangle;connectable=0;fillColor=none;top=0;left=0;bottom=0;right=0;editable=1;overflow=hidden;whiteSpace=wrap;html=1;" parent="NNMmTfBoiPFqAdsevqg7-1" vertex="1">
          <mxGeometry width="30" height="30" as="geometry">
            <mxRectangle width="30" height="30" as="alternateBounds" />
          </mxGeometry>
        </mxCell>
        <mxCell id="NNMmTfBoiPFqAdsevqg7-3" value="date_order" style="shape=partialRectangle;connectable=0;fillColor=none;top=0;left=0;bottom=0;right=0;align=left;spacingLeft=6;overflow=hidden;whiteSpace=wrap;html=1;" parent="NNMmTfBoiPFqAdsevqg7-1" vertex="1">
          <mxGeometry x="30" width="150" height="30" as="geometry">
            <mxRectangle width="150" height="30" as="alternateBounds" />
          </mxGeometry>
        </mxCell>
        <mxCell id="EgNLMYuObVE_k_55Yyai-1" style="shape=tableRow;horizontal=0;startSize=0;swimlaneHead=0;swimlaneBody=0;fillColor=none;collapsible=0;dropTarget=0;points=[[0,0.5],[1,0.5]];portConstraint=eastwest;top=0;left=0;right=0;bottom=0;" parent="IqVpxbswGgKMmOnbDUEB-1" vertex="1">
          <mxGeometry y="90" width="180" height="30" as="geometry" />
        </mxCell>
        <mxCell id="EgNLMYuObVE_k_55Yyai-2" value="FK" style="shape=partialRectangle;connectable=0;fillColor=none;top=0;left=0;bottom=0;right=0;editable=1;overflow=hidden;whiteSpace=wrap;html=1;" parent="EgNLMYuObVE_k_55Yyai-1" vertex="1">
          <mxGeometry width="30" height="30" as="geometry">
            <mxRectangle width="30" height="30" as="alternateBounds" />
          </mxGeometry>
        </mxCell>
        <mxCell id="EgNLMYuObVE_k_55Yyai-3" value="payment_id" style="shape=partialRectangle;connectable=0;fillColor=none;top=0;left=0;bottom=0;right=0;align=left;spacingLeft=6;overflow=hidden;whiteSpace=wrap;html=1;" parent="EgNLMYuObVE_k_55Yyai-1" vertex="1">
          <mxGeometry x="30" width="150" height="30" as="geometry">
            <mxRectangle width="150" height="30" as="alternateBounds" />
          </mxGeometry>
        </mxCell>
        <mxCell id="EgNLMYuObVE_k_55Yyai-4" style="shape=tableRow;horizontal=0;startSize=0;swimlaneHead=0;swimlaneBody=0;fillColor=none;collapsible=0;dropTarget=0;points=[[0,0.5],[1,0.5]];portConstraint=eastwest;top=0;left=0;right=0;bottom=0;" parent="IqVpxbswGgKMmOnbDUEB-1" vertex="1">
          <mxGeometry y="120" width="180" height="30" as="geometry" />
        </mxCell>
        <mxCell id="EgNLMYuObVE_k_55Yyai-5" value="FK" style="shape=partialRectangle;connectable=0;fillColor=none;top=0;left=0;bottom=0;right=0;editable=1;overflow=hidden;whiteSpace=wrap;html=1;" parent="EgNLMYuObVE_k_55Yyai-4" vertex="1">
          <mxGeometry width="30" height="30" as="geometry">
            <mxRectangle width="30" height="30" as="alternateBounds" />
          </mxGeometry>
        </mxCell>
        <mxCell id="EgNLMYuObVE_k_55Yyai-6" value="user_id" style="shape=partialRectangle;connectable=0;fillColor=none;top=0;left=0;bottom=0;right=0;align=left;spacingLeft=6;overflow=hidden;whiteSpace=wrap;html=1;" parent="EgNLMYuObVE_k_55Yyai-4" vertex="1">
          <mxGeometry x="30" width="150" height="30" as="geometry">
            <mxRectangle width="150" height="30" as="alternateBounds" />
          </mxGeometry>
        </mxCell>
        <mxCell id="11lCWuZK7TydoHT1iVC6-1" style="shape=tableRow;horizontal=0;startSize=0;swimlaneHead=0;swimlaneBody=0;fillColor=none;collapsible=0;dropTarget=0;points=[[0,0.5],[1,0.5]];portConstraint=eastwest;top=0;left=0;right=0;bottom=0;" parent="IqVpxbswGgKMmOnbDUEB-1" vertex="1">
          <mxGeometry y="150" width="180" height="30" as="geometry" />
        </mxCell>
        <mxCell id="11lCWuZK7TydoHT1iVC6-2" value="FK" style="shape=partialRectangle;connectable=0;fillColor=none;top=0;left=0;bottom=0;right=0;editable=1;overflow=hidden;whiteSpace=wrap;html=1;" parent="11lCWuZK7TydoHT1iVC6-1" vertex="1">
          <mxGeometry width="30" height="30" as="geometry">
            <mxRectangle width="30" height="30" as="alternateBounds" />
          </mxGeometry>
        </mxCell>
        <mxCell id="11lCWuZK7TydoHT1iVC6-3" value="employee_id" style="shape=partialRectangle;connectable=0;fillColor=none;top=0;left=0;bottom=0;right=0;align=left;spacingLeft=6;overflow=hidden;whiteSpace=wrap;html=1;" parent="11lCWuZK7TydoHT1iVC6-1" vertex="1">
          <mxGeometry x="30" width="150" height="30" as="geometry">
            <mxRectangle width="150" height="30" as="alternateBounds" />
          </mxGeometry>
        </mxCell>
        <mxCell id="EgNLMYuObVE_k_55Yyai-7" style="shape=tableRow;horizontal=0;startSize=0;swimlaneHead=0;swimlaneBody=0;fillColor=none;collapsible=0;dropTarget=0;points=[[0,0.5],[1,0.5]];portConstraint=eastwest;top=0;left=0;right=0;bottom=0;" parent="IqVpxbswGgKMmOnbDUEB-1" vertex="1">
          <mxGeometry y="180" width="180" height="30" as="geometry" />
        </mxCell>
        <mxCell id="EgNLMYuObVE_k_55Yyai-8" value="FK" style="shape=partialRectangle;connectable=0;fillColor=none;top=0;left=0;bottom=0;right=0;editable=1;overflow=hidden;whiteSpace=wrap;html=1;" parent="EgNLMYuObVE_k_55Yyai-7" vertex="1">
          <mxGeometry width="30" height="30" as="geometry">
            <mxRectangle width="30" height="30" as="alternateBounds" />
          </mxGeometry>
        </mxCell>
        <mxCell id="EgNLMYuObVE_k_55Yyai-9" value="status_order_id" style="shape=partialRectangle;connectable=0;fillColor=none;top=0;left=0;bottom=0;right=0;align=left;spacingLeft=6;overflow=hidden;whiteSpace=wrap;html=1;" parent="EgNLMYuObVE_k_55Yyai-7" vertex="1">
          <mxGeometry x="30" width="150" height="30" as="geometry">
            <mxRectangle width="150" height="30" as="alternateBounds" />
          </mxGeometry>
        </mxCell>
        <mxCell id="NnPYHTFYP97Qkpyrijza-1" value="status_orders" style="shape=table;startSize=30;container=1;collapsible=1;childLayout=tableLayout;fixedRows=1;rowLines=0;fontStyle=1;align=center;resizeLast=1;html=1;fillColor=#dae8fc;strokeColor=#6c8ebf;" parent="1" vertex="1">
          <mxGeometry x="640" y="450" width="180" height="90" as="geometry" />
        </mxCell>
        <mxCell id="NnPYHTFYP97Qkpyrijza-2" value="" style="shape=tableRow;horizontal=0;startSize=0;swimlaneHead=0;swimlaneBody=0;fillColor=none;collapsible=0;dropTarget=0;points=[[0,0.5],[1,0.5]];portConstraint=eastwest;top=0;left=0;right=0;bottom=1;" parent="NnPYHTFYP97Qkpyrijza-1" vertex="1">
          <mxGeometry y="30" width="180" height="30" as="geometry" />
        </mxCell>
        <mxCell id="NnPYHTFYP97Qkpyrijza-3" value="PK" style="shape=partialRectangle;connectable=0;fillColor=none;top=0;left=0;bottom=0;right=0;fontStyle=1;overflow=hidden;whiteSpace=wrap;html=1;" parent="NnPYHTFYP97Qkpyrijza-2" vertex="1">
          <mxGeometry width="30" height="30" as="geometry">
            <mxRectangle width="30" height="30" as="alternateBounds" />
          </mxGeometry>
        </mxCell>
        <mxCell id="NnPYHTFYP97Qkpyrijza-4" value="id" style="shape=partialRectangle;connectable=0;fillColor=none;top=0;left=0;bottom=0;right=0;align=left;spacingLeft=6;fontStyle=5;overflow=hidden;whiteSpace=wrap;html=1;" parent="NnPYHTFYP97Qkpyrijza-2" vertex="1">
          <mxGeometry x="30" width="150" height="30" as="geometry">
            <mxRectangle width="150" height="30" as="alternateBounds" />
          </mxGeometry>
        </mxCell>
        <mxCell id="NnPYHTFYP97Qkpyrijza-5" value="" style="shape=tableRow;horizontal=0;startSize=0;swimlaneHead=0;swimlaneBody=0;fillColor=none;collapsible=0;dropTarget=0;points=[[0,0.5],[1,0.5]];portConstraint=eastwest;top=0;left=0;right=0;bottom=0;" parent="NnPYHTFYP97Qkpyrijza-1" vertex="1">
          <mxGeometry y="60" width="180" height="30" as="geometry" />
        </mxCell>
        <mxCell id="NnPYHTFYP97Qkpyrijza-6" value="" style="shape=partialRectangle;connectable=0;fillColor=none;top=0;left=0;bottom=0;right=0;editable=1;overflow=hidden;whiteSpace=wrap;html=1;" parent="NnPYHTFYP97Qkpyrijza-5" vertex="1">
          <mxGeometry width="30" height="30" as="geometry">
            <mxRectangle width="30" height="30" as="alternateBounds" />
          </mxGeometry>
        </mxCell>
        <mxCell id="NnPYHTFYP97Qkpyrijza-7" value="name" style="shape=partialRectangle;connectable=0;fillColor=none;top=0;left=0;bottom=0;right=0;align=left;spacingLeft=6;overflow=hidden;whiteSpace=wrap;html=1;" parent="NnPYHTFYP97Qkpyrijza-5" vertex="1">
          <mxGeometry x="30" width="150" height="30" as="geometry">
            <mxRectangle width="150" height="30" as="alternateBounds" />
          </mxGeometry>
        </mxCell>
        <mxCell id="xQZp1vj9Y64OGQv2A32p-5" value="payments" style="shape=table;startSize=30;container=1;collapsible=1;childLayout=tableLayout;fixedRows=1;rowLines=0;fontStyle=1;align=center;resizeLast=1;html=1;fillColor=#dae8fc;strokeColor=#6c8ebf;" parent="1" vertex="1">
          <mxGeometry x="640" y="350" width="180" height="90" as="geometry" />
        </mxCell>
        <mxCell id="xQZp1vj9Y64OGQv2A32p-6" value="" style="shape=tableRow;horizontal=0;startSize=0;swimlaneHead=0;swimlaneBody=0;fillColor=none;collapsible=0;dropTarget=0;points=[[0,0.5],[1,0.5]];portConstraint=eastwest;top=0;left=0;right=0;bottom=1;" parent="xQZp1vj9Y64OGQv2A32p-5" vertex="1">
          <mxGeometry y="30" width="180" height="30" as="geometry" />
        </mxCell>
        <mxCell id="xQZp1vj9Y64OGQv2A32p-7" value="PK" style="shape=partialRectangle;connectable=0;fillColor=none;top=0;left=0;bottom=0;right=0;fontStyle=1;overflow=hidden;whiteSpace=wrap;html=1;" parent="xQZp1vj9Y64OGQv2A32p-6" vertex="1">
          <mxGeometry width="30" height="30" as="geometry">
            <mxRectangle width="30" height="30" as="alternateBounds" />
          </mxGeometry>
        </mxCell>
        <mxCell id="xQZp1vj9Y64OGQv2A32p-8" value="id" style="shape=partialRectangle;connectable=0;fillColor=none;top=0;left=0;bottom=0;right=0;align=left;spacingLeft=6;fontStyle=5;overflow=hidden;whiteSpace=wrap;html=1;" parent="xQZp1vj9Y64OGQv2A32p-6" vertex="1">
          <mxGeometry x="30" width="150" height="30" as="geometry">
            <mxRectangle width="150" height="30" as="alternateBounds" />
          </mxGeometry>
        </mxCell>
        <mxCell id="xQZp1vj9Y64OGQv2A32p-9" value="" style="shape=tableRow;horizontal=0;startSize=0;swimlaneHead=0;swimlaneBody=0;fillColor=none;collapsible=0;dropTarget=0;points=[[0,0.5],[1,0.5]];portConstraint=eastwest;top=0;left=0;right=0;bottom=0;" parent="xQZp1vj9Y64OGQv2A32p-5" vertex="1">
          <mxGeometry y="60" width="180" height="30" as="geometry" />
        </mxCell>
        <mxCell id="xQZp1vj9Y64OGQv2A32p-10" value="" style="shape=partialRectangle;connectable=0;fillColor=none;top=0;left=0;bottom=0;right=0;editable=1;overflow=hidden;whiteSpace=wrap;html=1;" parent="xQZp1vj9Y64OGQv2A32p-9" vertex="1">
          <mxGeometry width="30" height="30" as="geometry">
            <mxRectangle width="30" height="30" as="alternateBounds" />
          </mxGeometry>
        </mxCell>
        <mxCell id="xQZp1vj9Y64OGQv2A32p-11" value="name" style="shape=partialRectangle;connectable=0;fillColor=none;top=0;left=0;bottom=0;right=0;align=left;spacingLeft=6;overflow=hidden;whiteSpace=wrap;html=1;" parent="xQZp1vj9Y64OGQv2A32p-9" vertex="1">
          <mxGeometry x="30" width="150" height="30" as="geometry">
            <mxRectangle width="150" height="30" as="alternateBounds" />
          </mxGeometry>
        </mxCell>
        <mxCell id="ANZhQzZYAwpnS9QeR5of-1" value="products" style="shape=table;startSize=30;container=1;collapsible=1;childLayout=tableLayout;fixedRows=1;rowLines=0;fontStyle=1;align=center;resizeLast=1;html=1;fillColor=#dae8fc;strokeColor=#6c8ebf;" parent="1" vertex="1">
          <mxGeometry x="20" y="700" width="180" height="240" as="geometry" />
        </mxCell>
        <mxCell id="ANZhQzZYAwpnS9QeR5of-2" value="" style="shape=tableRow;horizontal=0;startSize=0;swimlaneHead=0;swimlaneBody=0;fillColor=none;collapsible=0;dropTarget=0;points=[[0,0.5],[1,0.5]];portConstraint=eastwest;top=0;left=0;right=0;bottom=1;" parent="ANZhQzZYAwpnS9QeR5of-1" vertex="1">
          <mxGeometry y="30" width="180" height="30" as="geometry" />
        </mxCell>
        <mxCell id="ANZhQzZYAwpnS9QeR5of-3" value="PK" style="shape=partialRectangle;connectable=0;fillColor=none;top=0;left=0;bottom=0;right=0;fontStyle=1;overflow=hidden;whiteSpace=wrap;html=1;" parent="ANZhQzZYAwpnS9QeR5of-2" vertex="1">
          <mxGeometry width="30" height="30" as="geometry">
            <mxRectangle width="30" height="30" as="alternateBounds" />
          </mxGeometry>
        </mxCell>
        <mxCell id="ANZhQzZYAwpnS9QeR5of-4" value="id" style="shape=partialRectangle;connectable=0;fillColor=none;top=0;left=0;bottom=0;right=0;align=left;spacingLeft=6;fontStyle=5;overflow=hidden;whiteSpace=wrap;html=1;" parent="ANZhQzZYAwpnS9QeR5of-2" vertex="1">
          <mxGeometry x="30" width="150" height="30" as="geometry">
            <mxRectangle width="150" height="30" as="alternateBounds" />
          </mxGeometry>
        </mxCell>
        <mxCell id="ANZhQzZYAwpnS9QeR5of-5" value="" style="shape=tableRow;horizontal=0;startSize=0;swimlaneHead=0;swimlaneBody=0;fillColor=none;collapsible=0;dropTarget=0;points=[[0,0.5],[1,0.5]];portConstraint=eastwest;top=0;left=0;right=0;bottom=0;" parent="ANZhQzZYAwpnS9QeR5of-1" vertex="1">
          <mxGeometry y="60" width="180" height="30" as="geometry" />
        </mxCell>
        <mxCell id="ANZhQzZYAwpnS9QeR5of-6" value="" style="shape=partialRectangle;connectable=0;fillColor=none;top=0;left=0;bottom=0;right=0;editable=1;overflow=hidden;whiteSpace=wrap;html=1;" parent="ANZhQzZYAwpnS9QeR5of-5" vertex="1">
          <mxGeometry width="30" height="30" as="geometry">
            <mxRectangle width="30" height="30" as="alternateBounds" />
          </mxGeometry>
        </mxCell>
        <mxCell id="ANZhQzZYAwpnS9QeR5of-7" value="name" style="shape=partialRectangle;connectable=0;fillColor=none;top=0;left=0;bottom=0;right=0;align=left;spacingLeft=6;overflow=hidden;whiteSpace=wrap;html=1;" parent="ANZhQzZYAwpnS9QeR5of-5" vertex="1">
          <mxGeometry x="30" width="150" height="30" as="geometry">
            <mxRectangle width="150" height="30" as="alternateBounds" />
          </mxGeometry>
        </mxCell>
        <mxCell id="ANZhQzZYAwpnS9QeR5of-8" style="shape=tableRow;horizontal=0;startSize=0;swimlaneHead=0;swimlaneBody=0;fillColor=none;collapsible=0;dropTarget=0;points=[[0,0.5],[1,0.5]];portConstraint=eastwest;top=0;left=0;right=0;bottom=0;" parent="ANZhQzZYAwpnS9QeR5of-1" vertex="1">
          <mxGeometry y="90" width="180" height="30" as="geometry" />
        </mxCell>
        <mxCell id="ANZhQzZYAwpnS9QeR5of-9" value="" style="shape=partialRectangle;connectable=0;fillColor=none;top=0;left=0;bottom=0;right=0;editable=1;overflow=hidden;whiteSpace=wrap;html=1;" parent="ANZhQzZYAwpnS9QeR5of-8" vertex="1">
          <mxGeometry width="30" height="30" as="geometry">
            <mxRectangle width="30" height="30" as="alternateBounds" />
          </mxGeometry>
        </mxCell>
        <mxCell id="ANZhQzZYAwpnS9QeR5of-10" value="description" style="shape=partialRectangle;connectable=0;fillColor=none;top=0;left=0;bottom=0;right=0;align=left;spacingLeft=6;overflow=hidden;whiteSpace=wrap;html=1;" parent="ANZhQzZYAwpnS9QeR5of-8" vertex="1">
          <mxGeometry x="30" width="150" height="30" as="geometry">
            <mxRectangle width="150" height="30" as="alternateBounds" />
          </mxGeometry>
        </mxCell>
        <mxCell id="ANZhQzZYAwpnS9QeR5of-11" style="shape=tableRow;horizontal=0;startSize=0;swimlaneHead=0;swimlaneBody=0;fillColor=none;collapsible=0;dropTarget=0;points=[[0,0.5],[1,0.5]];portConstraint=eastwest;top=0;left=0;right=0;bottom=0;" parent="ANZhQzZYAwpnS9QeR5of-1" vertex="1">
          <mxGeometry y="120" width="180" height="30" as="geometry" />
        </mxCell>
        <mxCell id="ANZhQzZYAwpnS9QeR5of-12" value="" style="shape=partialRectangle;connectable=0;fillColor=none;top=0;left=0;bottom=0;right=0;editable=1;overflow=hidden;whiteSpace=wrap;html=1;" parent="ANZhQzZYAwpnS9QeR5of-11" vertex="1">
          <mxGeometry width="30" height="30" as="geometry">
            <mxRectangle width="30" height="30" as="alternateBounds" />
          </mxGeometry>
        </mxCell>
        <mxCell id="ANZhQzZYAwpnS9QeR5of-13" value="price" style="shape=partialRectangle;connectable=0;fillColor=none;top=0;left=0;bottom=0;right=0;align=left;spacingLeft=6;overflow=hidden;whiteSpace=wrap;html=1;" parent="ANZhQzZYAwpnS9QeR5of-11" vertex="1">
          <mxGeometry x="30" width="150" height="30" as="geometry">
            <mxRectangle width="150" height="30" as="alternateBounds" />
          </mxGeometry>
        </mxCell>
        <mxCell id="ANZhQzZYAwpnS9QeR5of-14" style="shape=tableRow;horizontal=0;startSize=0;swimlaneHead=0;swimlaneBody=0;fillColor=none;collapsible=0;dropTarget=0;points=[[0,0.5],[1,0.5]];portConstraint=eastwest;top=0;left=0;right=0;bottom=0;" parent="ANZhQzZYAwpnS9QeR5of-1" vertex="1">
          <mxGeometry y="150" width="180" height="30" as="geometry" />
        </mxCell>
        <mxCell id="ANZhQzZYAwpnS9QeR5of-15" value="" style="shape=partialRectangle;connectable=0;fillColor=none;top=0;left=0;bottom=0;right=0;editable=1;overflow=hidden;whiteSpace=wrap;html=1;" parent="ANZhQzZYAwpnS9QeR5of-14" vertex="1">
          <mxGeometry width="30" height="30" as="geometry">
            <mxRectangle width="30" height="30" as="alternateBounds" />
          </mxGeometry>
        </mxCell>
        <mxCell id="ANZhQzZYAwpnS9QeR5of-16" value="quantity" style="shape=partialRectangle;connectable=0;fillColor=none;top=0;left=0;bottom=0;right=0;align=left;spacingLeft=6;overflow=hidden;whiteSpace=wrap;html=1;" parent="ANZhQzZYAwpnS9QeR5of-14" vertex="1">
          <mxGeometry x="30" width="150" height="30" as="geometry">
            <mxRectangle width="150" height="30" as="alternateBounds" />
          </mxGeometry>
        </mxCell>
        <mxCell id="PX_mhyWLTDTr8y7e1JCo-4" style="shape=tableRow;horizontal=0;startSize=0;swimlaneHead=0;swimlaneBody=0;fillColor=none;collapsible=0;dropTarget=0;points=[[0,0.5],[1,0.5]];portConstraint=eastwest;top=0;left=0;right=0;bottom=0;" vertex="1" parent="ANZhQzZYAwpnS9QeR5of-1">
          <mxGeometry y="180" width="180" height="30" as="geometry" />
        </mxCell>
        <mxCell id="PX_mhyWLTDTr8y7e1JCo-5" style="shape=partialRectangle;connectable=0;fillColor=none;top=0;left=0;bottom=0;right=0;editable=1;overflow=hidden;whiteSpace=wrap;html=1;" vertex="1" parent="PX_mhyWLTDTr8y7e1JCo-4">
          <mxGeometry width="30" height="30" as="geometry">
            <mxRectangle width="30" height="30" as="alternateBounds" />
          </mxGeometry>
        </mxCell>
        <mxCell id="PX_mhyWLTDTr8y7e1JCo-6" value="path" style="shape=partialRectangle;connectable=0;fillColor=none;top=0;left=0;bottom=0;right=0;align=left;spacingLeft=6;overflow=hidden;whiteSpace=wrap;html=1;" vertex="1" parent="PX_mhyWLTDTr8y7e1JCo-4">
          <mxGeometry x="30" width="150" height="30" as="geometry">
            <mxRectangle width="150" height="30" as="alternateBounds" />
          </mxGeometry>
        </mxCell>
        <mxCell id="oS-Zj7_Dr6BEjjNApW3L-4" style="shape=tableRow;horizontal=0;startSize=0;swimlaneHead=0;swimlaneBody=0;fillColor=none;collapsible=0;dropTarget=0;points=[[0,0.5],[1,0.5]];portConstraint=eastwest;top=0;left=0;right=0;bottom=0;" parent="ANZhQzZYAwpnS9QeR5of-1" vertex="1">
          <mxGeometry y="210" width="180" height="30" as="geometry" />
        </mxCell>
        <mxCell id="oS-Zj7_Dr6BEjjNApW3L-5" value="FK" style="shape=partialRectangle;connectable=0;fillColor=none;top=0;left=0;bottom=0;right=0;editable=1;overflow=hidden;whiteSpace=wrap;html=1;" parent="oS-Zj7_Dr6BEjjNApW3L-4" vertex="1">
          <mxGeometry width="30" height="30" as="geometry">
            <mxRectangle width="30" height="30" as="alternateBounds" />
          </mxGeometry>
        </mxCell>
        <mxCell id="oS-Zj7_Dr6BEjjNApW3L-6" value="category_id" style="shape=partialRectangle;connectable=0;fillColor=none;top=0;left=0;bottom=0;right=0;align=left;spacingLeft=6;overflow=hidden;whiteSpace=wrap;html=1;" parent="oS-Zj7_Dr6BEjjNApW3L-4" vertex="1">
          <mxGeometry x="30" width="150" height="30" as="geometry">
            <mxRectangle width="150" height="30" as="alternateBounds" />
          </mxGeometry>
        </mxCell>
        <mxCell id="QWs3LWRQrajg1if5wBkp-1" value="categories" style="shape=table;startSize=30;container=1;collapsible=1;childLayout=tableLayout;fixedRows=1;rowLines=0;fontStyle=1;align=center;resizeLast=1;html=1;fillColor=#dae8fc;strokeColor=#6c8ebf;" parent="1" vertex="1">
          <mxGeometry x="-240" y="820" width="180" height="90" as="geometry" />
        </mxCell>
        <mxCell id="QWs3LWRQrajg1if5wBkp-2" value="" style="shape=tableRow;horizontal=0;startSize=0;swimlaneHead=0;swimlaneBody=0;fillColor=none;collapsible=0;dropTarget=0;points=[[0,0.5],[1,0.5]];portConstraint=eastwest;top=0;left=0;right=0;bottom=1;" parent="QWs3LWRQrajg1if5wBkp-1" vertex="1">
          <mxGeometry y="30" width="180" height="30" as="geometry" />
        </mxCell>
        <mxCell id="QWs3LWRQrajg1if5wBkp-3" value="PK" style="shape=partialRectangle;connectable=0;fillColor=none;top=0;left=0;bottom=0;right=0;fontStyle=1;overflow=hidden;whiteSpace=wrap;html=1;" parent="QWs3LWRQrajg1if5wBkp-2" vertex="1">
          <mxGeometry width="30" height="30" as="geometry">
            <mxRectangle width="30" height="30" as="alternateBounds" />
          </mxGeometry>
        </mxCell>
        <mxCell id="QWs3LWRQrajg1if5wBkp-4" value="id" style="shape=partialRectangle;connectable=0;fillColor=none;top=0;left=0;bottom=0;right=0;align=left;spacingLeft=6;fontStyle=5;overflow=hidden;whiteSpace=wrap;html=1;" parent="QWs3LWRQrajg1if5wBkp-2" vertex="1">
          <mxGeometry x="30" width="150" height="30" as="geometry">
            <mxRectangle width="150" height="30" as="alternateBounds" />
          </mxGeometry>
        </mxCell>
        <mxCell id="QWs3LWRQrajg1if5wBkp-5" value="" style="shape=tableRow;horizontal=0;startSize=0;swimlaneHead=0;swimlaneBody=0;fillColor=none;collapsible=0;dropTarget=0;points=[[0,0.5],[1,0.5]];portConstraint=eastwest;top=0;left=0;right=0;bottom=0;" parent="QWs3LWRQrajg1if5wBkp-1" vertex="1">
          <mxGeometry y="60" width="180" height="30" as="geometry" />
        </mxCell>
        <mxCell id="QWs3LWRQrajg1if5wBkp-6" value="" style="shape=partialRectangle;connectable=0;fillColor=none;top=0;left=0;bottom=0;right=0;editable=1;overflow=hidden;whiteSpace=wrap;html=1;" parent="QWs3LWRQrajg1if5wBkp-5" vertex="1">
          <mxGeometry width="30" height="30" as="geometry">
            <mxRectangle width="30" height="30" as="alternateBounds" />
          </mxGeometry>
        </mxCell>
        <mxCell id="QWs3LWRQrajg1if5wBkp-7" value="name" style="shape=partialRectangle;connectable=0;fillColor=none;top=0;left=0;bottom=0;right=0;align=left;spacingLeft=6;overflow=hidden;whiteSpace=wrap;html=1;" parent="QWs3LWRQrajg1if5wBkp-5" vertex="1">
          <mxGeometry x="30" width="150" height="30" as="geometry">
            <mxRectangle width="150" height="30" as="alternateBounds" />
          </mxGeometry>
        </mxCell>
        <mxCell id="isLvHaiszLi-mpCwUxwo-4" value="compounds" style="shape=table;startSize=30;container=1;collapsible=1;childLayout=tableLayout;fixedRows=1;rowLines=0;fontStyle=1;align=center;resizeLast=1;html=1;fillColor=#dae8fc;strokeColor=#6c8ebf;" parent="1" vertex="1">
          <mxGeometry x="350" y="710" width="180" height="180" as="geometry" />
        </mxCell>
        <mxCell id="isLvHaiszLi-mpCwUxwo-5" value="" style="shape=tableRow;horizontal=0;startSize=0;swimlaneHead=0;swimlaneBody=0;fillColor=none;collapsible=0;dropTarget=0;points=[[0,0.5],[1,0.5]];portConstraint=eastwest;top=0;left=0;right=0;bottom=1;" parent="isLvHaiszLi-mpCwUxwo-4" vertex="1">
          <mxGeometry y="30" width="180" height="30" as="geometry" />
        </mxCell>
        <mxCell id="isLvHaiszLi-mpCwUxwo-6" value="PK" style="shape=partialRectangle;connectable=0;fillColor=none;top=0;left=0;bottom=0;right=0;fontStyle=1;overflow=hidden;whiteSpace=wrap;html=1;" parent="isLvHaiszLi-mpCwUxwo-5" vertex="1">
          <mxGeometry width="30" height="30" as="geometry">
            <mxRectangle width="30" height="30" as="alternateBounds" />
          </mxGeometry>
        </mxCell>
        <mxCell id="isLvHaiszLi-mpCwUxwo-7" value="id" style="shape=partialRectangle;connectable=0;fillColor=none;top=0;left=0;bottom=0;right=0;align=left;spacingLeft=6;fontStyle=5;overflow=hidden;whiteSpace=wrap;html=1;" parent="isLvHaiszLi-mpCwUxwo-5" vertex="1">
          <mxGeometry x="30" width="150" height="30" as="geometry">
            <mxRectangle width="150" height="30" as="alternateBounds" />
          </mxGeometry>
        </mxCell>
        <mxCell id="36hyHNMlgwVhQcXftRjd-1" style="shape=tableRow;horizontal=0;startSize=0;swimlaneHead=0;swimlaneBody=0;fillColor=none;collapsible=0;dropTarget=0;points=[[0,0.5],[1,0.5]];portConstraint=eastwest;top=0;left=0;right=0;bottom=0;" parent="isLvHaiszLi-mpCwUxwo-4" vertex="1">
          <mxGeometry y="60" width="180" height="30" as="geometry" />
        </mxCell>
        <mxCell id="36hyHNMlgwVhQcXftRjd-2" style="shape=partialRectangle;connectable=0;fillColor=none;top=0;left=0;bottom=0;right=0;editable=1;overflow=hidden;whiteSpace=wrap;html=1;" parent="36hyHNMlgwVhQcXftRjd-1" vertex="1">
          <mxGeometry width="30" height="30" as="geometry">
            <mxRectangle width="30" height="30" as="alternateBounds" />
          </mxGeometry>
        </mxCell>
        <mxCell id="36hyHNMlgwVhQcXftRjd-3" value="quantity" style="shape=partialRectangle;connectable=0;fillColor=none;top=0;left=0;bottom=0;right=0;align=left;spacingLeft=6;overflow=hidden;whiteSpace=wrap;html=1;" parent="36hyHNMlgwVhQcXftRjd-1" vertex="1">
          <mxGeometry x="30" width="150" height="30" as="geometry">
            <mxRectangle width="150" height="30" as="alternateBounds" />
          </mxGeometry>
        </mxCell>
        <mxCell id="36hyHNMlgwVhQcXftRjd-4" style="shape=tableRow;horizontal=0;startSize=0;swimlaneHead=0;swimlaneBody=0;fillColor=none;collapsible=0;dropTarget=0;points=[[0,0.5],[1,0.5]];portConstraint=eastwest;top=0;left=0;right=0;bottom=0;" parent="isLvHaiszLi-mpCwUxwo-4" vertex="1">
          <mxGeometry y="90" width="180" height="30" as="geometry" />
        </mxCell>
        <mxCell id="36hyHNMlgwVhQcXftRjd-5" style="shape=partialRectangle;connectable=0;fillColor=none;top=0;left=0;bottom=0;right=0;editable=1;overflow=hidden;whiteSpace=wrap;html=1;" parent="36hyHNMlgwVhQcXftRjd-4" vertex="1">
          <mxGeometry width="30" height="30" as="geometry">
            <mxRectangle width="30" height="30" as="alternateBounds" />
          </mxGeometry>
        </mxCell>
        <mxCell id="36hyHNMlgwVhQcXftRjd-6" value="total_price" style="shape=partialRectangle;connectable=0;fillColor=none;top=0;left=0;bottom=0;right=0;align=left;spacingLeft=6;overflow=hidden;whiteSpace=wrap;html=1;" parent="36hyHNMlgwVhQcXftRjd-4" vertex="1">
          <mxGeometry x="30" width="150" height="30" as="geometry">
            <mxRectangle width="150" height="30" as="alternateBounds" />
          </mxGeometry>
        </mxCell>
        <mxCell id="isLvHaiszLi-mpCwUxwo-8" value="" style="shape=tableRow;horizontal=0;startSize=0;swimlaneHead=0;swimlaneBody=0;fillColor=none;collapsible=0;dropTarget=0;points=[[0,0.5],[1,0.5]];portConstraint=eastwest;top=0;left=0;right=0;bottom=0;" parent="isLvHaiszLi-mpCwUxwo-4" vertex="1">
          <mxGeometry y="120" width="180" height="30" as="geometry" />
        </mxCell>
        <mxCell id="isLvHaiszLi-mpCwUxwo-9" value="FK" style="shape=partialRectangle;connectable=0;fillColor=none;top=0;left=0;bottom=0;right=0;editable=1;overflow=hidden;whiteSpace=wrap;html=1;" parent="isLvHaiszLi-mpCwUxwo-8" vertex="1">
          <mxGeometry width="30" height="30" as="geometry">
            <mxRectangle width="30" height="30" as="alternateBounds" />
          </mxGeometry>
        </mxCell>
        <mxCell id="isLvHaiszLi-mpCwUxwo-10" value="order_id" style="shape=partialRectangle;connectable=0;fillColor=none;top=0;left=0;bottom=0;right=0;align=left;spacingLeft=6;overflow=hidden;whiteSpace=wrap;html=1;" parent="isLvHaiszLi-mpCwUxwo-8" vertex="1">
          <mxGeometry x="30" width="150" height="30" as="geometry">
            <mxRectangle width="150" height="30" as="alternateBounds" />
          </mxGeometry>
        </mxCell>
        <mxCell id="ABsKMb--28ebExwF2Y8B-1" style="shape=tableRow;horizontal=0;startSize=0;swimlaneHead=0;swimlaneBody=0;fillColor=none;collapsible=0;dropTarget=0;points=[[0,0.5],[1,0.5]];portConstraint=eastwest;top=0;left=0;right=0;bottom=0;" parent="isLvHaiszLi-mpCwUxwo-4" vertex="1">
          <mxGeometry y="150" width="180" height="30" as="geometry" />
        </mxCell>
        <mxCell id="ABsKMb--28ebExwF2Y8B-2" value="FK" style="shape=partialRectangle;connectable=0;fillColor=none;top=0;left=0;bottom=0;right=0;editable=1;overflow=hidden;whiteSpace=wrap;html=1;" parent="ABsKMb--28ebExwF2Y8B-1" vertex="1">
          <mxGeometry width="30" height="30" as="geometry">
            <mxRectangle width="30" height="30" as="alternateBounds" />
          </mxGeometry>
        </mxCell>
        <mxCell id="ABsKMb--28ebExwF2Y8B-3" value="product_id" style="shape=partialRectangle;connectable=0;fillColor=none;top=0;left=0;bottom=0;right=0;align=left;spacingLeft=6;overflow=hidden;whiteSpace=wrap;html=1;" parent="ABsKMb--28ebExwF2Y8B-1" vertex="1">
          <mxGeometry x="30" width="150" height="30" as="geometry">
            <mxRectangle width="150" height="30" as="alternateBounds" />
          </mxGeometry>
        </mxCell>
        <mxCell id="3HivfYHdHlzg5ds7U6lH-1" value="" style="edgeStyle=orthogonalEdgeStyle;fontSize=12;html=1;endArrow=ERoneToMany;rounded=0;entryX=0;entryY=0.5;entryDx=0;entryDy=0;" parent="1" source="uixmEJtQYE6XZ1nQol0m-2" target="a321mZ3WpodQljg_TV5I-1" edge="1">
          <mxGeometry width="100" height="100" relative="1" as="geometry">
            <mxPoint x="460" y="480" as="sourcePoint" />
            <mxPoint x="50" y="580" as="targetPoint" />
          </mxGeometry>
        </mxCell>
        <mxCell id="3HivfYHdHlzg5ds7U6lH-3" value="" style="edgeStyle=entityRelationEdgeStyle;fontSize=12;html=1;endArrow=ERoneToMany;rounded=0;exitX=1.006;exitY=0.733;exitDx=0;exitDy=0;exitPerimeter=0;" parent="1" source="uixmEJtQYE6XZ1nQol0m-15" target="6vxNORHovWRSIklVcauw-1" edge="1">
          <mxGeometry width="100" height="100" relative="1" as="geometry">
            <mxPoint x="460" y="480" as="sourcePoint" />
            <mxPoint x="560" y="380" as="targetPoint" />
          </mxGeometry>
        </mxCell>
        <mxCell id="3HivfYHdHlzg5ds7U6lH-6" value="" style="edgeStyle=orthogonalEdgeStyle;fontSize=12;html=1;endArrow=ERoneToMany;rounded=0;" parent="1" source="xQZp1vj9Y64OGQv2A32p-6" target="EgNLMYuObVE_k_55Yyai-1" edge="1">
          <mxGeometry width="100" height="100" relative="1" as="geometry">
            <mxPoint x="610" y="655" as="sourcePoint" />
            <mxPoint x="490" y="715" as="targetPoint" />
          </mxGeometry>
        </mxCell>
        <mxCell id="3HivfYHdHlzg5ds7U6lH-7" value="" style="edgeStyle=orthogonalEdgeStyle;fontSize=12;html=1;endArrow=ERoneToMany;rounded=0;exitX=1.006;exitY=0.167;exitDx=0;exitDy=0;exitPerimeter=0;" parent="1" source="uixmEJtQYE6XZ1nQol0m-15" target="EgNLMYuObVE_k_55Yyai-4" edge="1">
          <mxGeometry width="100" height="100" relative="1" as="geometry">
            <mxPoint x="600" y="845" as="sourcePoint" />
            <mxPoint x="490" y="745" as="targetPoint" />
          </mxGeometry>
        </mxCell>
        <mxCell id="3HivfYHdHlzg5ds7U6lH-8" value="" style="edgeStyle=entityRelationEdgeStyle;fontSize=12;html=1;endArrow=ERoneToMany;rounded=0;" parent="1" source="NnPYHTFYP97Qkpyrijza-2" target="EgNLMYuObVE_k_55Yyai-7" edge="1">
          <mxGeometry width="100" height="100" relative="1" as="geometry">
            <mxPoint x="460" y="680" as="sourcePoint" />
            <mxPoint x="560" y="580" as="targetPoint" />
          </mxGeometry>
        </mxCell>
        <mxCell id="3HivfYHdHlzg5ds7U6lH-9" value="" style="edgeStyle=entityRelationEdgeStyle;fontSize=12;html=1;endArrow=ERoneToMany;rounded=0;" parent="1" source="IqVpxbswGgKMmOnbDUEB-2" target="isLvHaiszLi-mpCwUxwo-8" edge="1">
          <mxGeometry width="100" height="100" relative="1" as="geometry">
            <mxPoint x="460" y="780" as="sourcePoint" />
            <mxPoint x="560" y="680" as="targetPoint" />
          </mxGeometry>
        </mxCell>
        <mxCell id="3HivfYHdHlzg5ds7U6lH-12" value="" style="edgeStyle=entityRelationEdgeStyle;fontSize=12;html=1;endArrow=ERoneToMany;rounded=0;" parent="1" source="QWs3LWRQrajg1if5wBkp-2" target="oS-Zj7_Dr6BEjjNApW3L-4" edge="1">
          <mxGeometry width="100" height="100" relative="1" as="geometry">
            <mxPoint x="460" y="850" as="sourcePoint" />
            <mxPoint x="560" y="750" as="targetPoint" />
          </mxGeometry>
        </mxCell>
        <mxCell id="d38TOh63PZEw4yzTM0yV-7" value="" style="edgeStyle=orthogonalEdgeStyle;fontSize=12;html=1;endArrow=ERoneToMany;rounded=0;" parent="1" source="uixmEJtQYE6XZ1nQol0m-15" target="d38TOh63PZEw4yzTM0yV-1" edge="1">
          <mxGeometry width="100" height="100" relative="1" as="geometry">
            <mxPoint x="30" y="710" as="sourcePoint" />
            <mxPoint x="130" y="610" as="targetPoint" />
          </mxGeometry>
        </mxCell>
        <mxCell id="d38TOh63PZEw4yzTM0yV-8" value="" style="edgeStyle=entityRelationEdgeStyle;fontSize=12;html=1;endArrow=ERoneToMany;rounded=0;" parent="1" source="ANZhQzZYAwpnS9QeR5of-2" target="d38TOh63PZEw4yzTM0yV-4" edge="1">
          <mxGeometry width="100" height="100" relative="1" as="geometry">
            <mxPoint x="370" y="255" as="sourcePoint" />
            <mxPoint x="230" y="635" as="targetPoint" />
          </mxGeometry>
        </mxCell>
        <mxCell id="R1m_TgCh_jZRf2_tlQ4Z-2" value="" style="edgeStyle=orthogonalEdgeStyle;fontSize=12;html=1;endArrow=ERoneToMany;rounded=0;exitX=1;exitY=0.5;exitDx=0;exitDy=0;entryX=0;entryY=0.5;entryDx=0;entryDy=0;" parent="1" source="ANZhQzZYAwpnS9QeR5of-2" target="JoQhzspGebb99p7AvE2c-1" edge="1">
          <mxGeometry width="100" height="100" relative="1" as="geometry">
            <mxPoint x="290" y="940" as="sourcePoint" />
            <mxPoint x="390" y="840" as="targetPoint" />
          </mxGeometry>
        </mxCell>
        <mxCell id="R1m_TgCh_jZRf2_tlQ4Z-3" value="" style="edgeStyle=orthogonalEdgeStyle;fontSize=12;html=1;endArrow=ERoneToMany;rounded=0;entryX=0;entryY=0.5;entryDx=0;entryDy=0;exitX=1;exitY=0.867;exitDx=0;exitDy=0;exitPerimeter=0;" parent="1" source="ANZhQzZYAwpnS9QeR5of-2" target="ABsKMb--28ebExwF2Y8B-1" edge="1">
          <mxGeometry width="100" height="100" relative="1" as="geometry">
            <mxPoint x="290" y="940" as="sourcePoint" />
            <mxPoint x="390" y="840" as="targetPoint" />
          </mxGeometry>
        </mxCell>
        <mxCell id="5QtFYwSILm9UZeChAxwK-12" value="news" style="shape=table;startSize=30;container=1;collapsible=1;childLayout=tableLayout;fixedRows=1;rowLines=0;fontStyle=1;align=center;resizeLast=1;html=1;fillColor=#dae8fc;strokeColor=#6c8ebf;" parent="1" vertex="1">
          <mxGeometry x="630" y="570" width="180" height="210" as="geometry" />
        </mxCell>
        <mxCell id="5QtFYwSILm9UZeChAxwK-13" value="" style="shape=tableRow;horizontal=0;startSize=0;swimlaneHead=0;swimlaneBody=0;fillColor=none;collapsible=0;dropTarget=0;points=[[0,0.5],[1,0.5]];portConstraint=eastwest;top=0;left=0;right=0;bottom=1;" parent="5QtFYwSILm9UZeChAxwK-12" vertex="1">
          <mxGeometry y="30" width="180" height="30" as="geometry" />
        </mxCell>
        <mxCell id="5QtFYwSILm9UZeChAxwK-14" value="PK" style="shape=partialRectangle;connectable=0;fillColor=none;top=0;left=0;bottom=0;right=0;fontStyle=1;overflow=hidden;whiteSpace=wrap;html=1;" parent="5QtFYwSILm9UZeChAxwK-13" vertex="1">
          <mxGeometry width="30" height="30" as="geometry">
            <mxRectangle width="30" height="30" as="alternateBounds" />
          </mxGeometry>
        </mxCell>
        <mxCell id="5QtFYwSILm9UZeChAxwK-15" value="id" style="shape=partialRectangle;connectable=0;fillColor=none;top=0;left=0;bottom=0;right=0;align=left;spacingLeft=6;fontStyle=5;overflow=hidden;whiteSpace=wrap;html=1;" parent="5QtFYwSILm9UZeChAxwK-13" vertex="1">
          <mxGeometry x="30" width="150" height="30" as="geometry">
            <mxRectangle width="150" height="30" as="alternateBounds" />
          </mxGeometry>
        </mxCell>
        <mxCell id="5QtFYwSILm9UZeChAxwK-16" style="shape=tableRow;horizontal=0;startSize=0;swimlaneHead=0;swimlaneBody=0;fillColor=none;collapsible=0;dropTarget=0;points=[[0,0.5],[1,0.5]];portConstraint=eastwest;top=0;left=0;right=0;bottom=0;" parent="5QtFYwSILm9UZeChAxwK-12" vertex="1">
          <mxGeometry y="60" width="180" height="30" as="geometry" />
        </mxCell>
        <mxCell id="5QtFYwSILm9UZeChAxwK-17" style="shape=partialRectangle;connectable=0;fillColor=none;top=0;left=0;bottom=0;right=0;editable=1;overflow=hidden;whiteSpace=wrap;html=1;" parent="5QtFYwSILm9UZeChAxwK-16" vertex="1">
          <mxGeometry width="30" height="30" as="geometry">
            <mxRectangle width="30" height="30" as="alternateBounds" />
          </mxGeometry>
        </mxCell>
        <mxCell id="5QtFYwSILm9UZeChAxwK-18" value="date" style="shape=partialRectangle;connectable=0;fillColor=none;top=0;left=0;bottom=0;right=0;align=left;spacingLeft=6;overflow=hidden;whiteSpace=wrap;html=1;" parent="5QtFYwSILm9UZeChAxwK-16" vertex="1">
          <mxGeometry x="30" width="150" height="30" as="geometry">
            <mxRectangle width="150" height="30" as="alternateBounds" />
          </mxGeometry>
        </mxCell>
        <mxCell id="5QtFYwSILm9UZeChAxwK-19" style="shape=tableRow;horizontal=0;startSize=0;swimlaneHead=0;swimlaneBody=0;fillColor=none;collapsible=0;dropTarget=0;points=[[0,0.5],[1,0.5]];portConstraint=eastwest;top=0;left=0;right=0;bottom=0;" parent="5QtFYwSILm9UZeChAxwK-12" vertex="1">
          <mxGeometry y="90" width="180" height="30" as="geometry" />
        </mxCell>
        <mxCell id="5QtFYwSILm9UZeChAxwK-20" style="shape=partialRectangle;connectable=0;fillColor=none;top=0;left=0;bottom=0;right=0;editable=1;overflow=hidden;whiteSpace=wrap;html=1;" parent="5QtFYwSILm9UZeChAxwK-19" vertex="1">
          <mxGeometry width="30" height="30" as="geometry">
            <mxRectangle width="30" height="30" as="alternateBounds" />
          </mxGeometry>
        </mxCell>
        <mxCell id="5QtFYwSILm9UZeChAxwK-21" value="name" style="shape=partialRectangle;connectable=0;fillColor=none;top=0;left=0;bottom=0;right=0;align=left;spacingLeft=6;overflow=hidden;whiteSpace=wrap;html=1;" parent="5QtFYwSILm9UZeChAxwK-19" vertex="1">
          <mxGeometry x="30" width="150" height="30" as="geometry">
            <mxRectangle width="150" height="30" as="alternateBounds" />
          </mxGeometry>
        </mxCell>
        <mxCell id="5QtFYwSILm9UZeChAxwK-22" value="" style="shape=tableRow;horizontal=0;startSize=0;swimlaneHead=0;swimlaneBody=0;fillColor=none;collapsible=0;dropTarget=0;points=[[0,0.5],[1,0.5]];portConstraint=eastwest;top=0;left=0;right=0;bottom=0;" parent="5QtFYwSILm9UZeChAxwK-12" vertex="1">
          <mxGeometry y="120" width="180" height="30" as="geometry" />
        </mxCell>
        <mxCell id="5QtFYwSILm9UZeChAxwK-23" value="" style="shape=partialRectangle;connectable=0;fillColor=none;top=0;left=0;bottom=0;right=0;editable=1;overflow=hidden;whiteSpace=wrap;html=1;" parent="5QtFYwSILm9UZeChAxwK-22" vertex="1">
          <mxGeometry width="30" height="30" as="geometry">
            <mxRectangle width="30" height="30" as="alternateBounds" />
          </mxGeometry>
        </mxCell>
        <mxCell id="5QtFYwSILm9UZeChAxwK-24" value="short_description" style="shape=partialRectangle;connectable=0;fillColor=none;top=0;left=0;bottom=0;right=0;align=left;spacingLeft=6;overflow=hidden;whiteSpace=wrap;html=1;" parent="5QtFYwSILm9UZeChAxwK-22" vertex="1">
          <mxGeometry x="30" width="150" height="30" as="geometry">
            <mxRectangle width="150" height="30" as="alternateBounds" />
          </mxGeometry>
        </mxCell>
        <mxCell id="5QtFYwSILm9UZeChAxwK-25" style="shape=tableRow;horizontal=0;startSize=0;swimlaneHead=0;swimlaneBody=0;fillColor=none;collapsible=0;dropTarget=0;points=[[0,0.5],[1,0.5]];portConstraint=eastwest;top=0;left=0;right=0;bottom=0;" parent="5QtFYwSILm9UZeChAxwK-12" vertex="1">
          <mxGeometry y="150" width="180" height="30" as="geometry" />
        </mxCell>
        <mxCell id="5QtFYwSILm9UZeChAxwK-26" value="" style="shape=partialRectangle;connectable=0;fillColor=none;top=0;left=0;bottom=0;right=0;editable=1;overflow=hidden;whiteSpace=wrap;html=1;" parent="5QtFYwSILm9UZeChAxwK-25" vertex="1">
          <mxGeometry width="30" height="30" as="geometry">
            <mxRectangle width="30" height="30" as="alternateBounds" />
          </mxGeometry>
        </mxCell>
        <mxCell id="5QtFYwSILm9UZeChAxwK-27" value="long_description" style="shape=partialRectangle;connectable=0;fillColor=none;top=0;left=0;bottom=0;right=0;align=left;spacingLeft=6;overflow=hidden;whiteSpace=wrap;html=1;" parent="5QtFYwSILm9UZeChAxwK-25" vertex="1">
          <mxGeometry x="30" width="150" height="30" as="geometry">
            <mxRectangle width="150" height="30" as="alternateBounds" />
          </mxGeometry>
        </mxCell>
        <mxCell id="PX_mhyWLTDTr8y7e1JCo-1" style="shape=tableRow;horizontal=0;startSize=0;swimlaneHead=0;swimlaneBody=0;fillColor=none;collapsible=0;dropTarget=0;points=[[0,0.5],[1,0.5]];portConstraint=eastwest;top=0;left=0;right=0;bottom=0;" vertex="1" parent="5QtFYwSILm9UZeChAxwK-12">
          <mxGeometry y="180" width="180" height="30" as="geometry" />
        </mxCell>
        <mxCell id="PX_mhyWLTDTr8y7e1JCo-2" style="shape=partialRectangle;connectable=0;fillColor=none;top=0;left=0;bottom=0;right=0;editable=1;overflow=hidden;whiteSpace=wrap;html=1;" vertex="1" parent="PX_mhyWLTDTr8y7e1JCo-1">
          <mxGeometry width="30" height="30" as="geometry">
            <mxRectangle width="30" height="30" as="alternateBounds" />
          </mxGeometry>
        </mxCell>
        <mxCell id="PX_mhyWLTDTr8y7e1JCo-3" value="path" style="shape=partialRectangle;connectable=0;fillColor=none;top=0;left=0;bottom=0;right=0;align=left;spacingLeft=6;overflow=hidden;whiteSpace=wrap;html=1;" vertex="1" parent="PX_mhyWLTDTr8y7e1JCo-1">
          <mxGeometry x="30" width="150" height="30" as="geometry">
            <mxRectangle width="150" height="30" as="alternateBounds" />
          </mxGeometry>
        </mxCell>
        <mxCell id="5QtFYwSILm9UZeChAxwK-58" value="shifts" style="shape=table;startSize=30;container=1;collapsible=1;childLayout=tableLayout;fixedRows=1;rowLines=0;fontStyle=1;align=center;resizeLast=1;html=1;fillColor=#dae8fc;strokeColor=#6c8ebf;" parent="1" vertex="1">
          <mxGeometry x="-220" y="210" width="180" height="150" as="geometry" />
        </mxCell>
        <mxCell id="5QtFYwSILm9UZeChAxwK-59" value="" style="shape=tableRow;horizontal=0;startSize=0;swimlaneHead=0;swimlaneBody=0;fillColor=none;collapsible=0;dropTarget=0;points=[[0,0.5],[1,0.5]];portConstraint=eastwest;top=0;left=0;right=0;bottom=1;" parent="5QtFYwSILm9UZeChAxwK-58" vertex="1">
          <mxGeometry y="30" width="180" height="30" as="geometry" />
        </mxCell>
        <mxCell id="5QtFYwSILm9UZeChAxwK-60" value="PK" style="shape=partialRectangle;connectable=0;fillColor=none;top=0;left=0;bottom=0;right=0;fontStyle=1;overflow=hidden;whiteSpace=wrap;html=1;" parent="5QtFYwSILm9UZeChAxwK-59" vertex="1">
          <mxGeometry width="30" height="30" as="geometry">
            <mxRectangle width="30" height="30" as="alternateBounds" />
          </mxGeometry>
        </mxCell>
        <mxCell id="5QtFYwSILm9UZeChAxwK-61" value="id" style="shape=partialRectangle;connectable=0;fillColor=none;top=0;left=0;bottom=0;right=0;align=left;spacingLeft=6;fontStyle=5;overflow=hidden;whiteSpace=wrap;html=1;" parent="5QtFYwSILm9UZeChAxwK-59" vertex="1">
          <mxGeometry x="30" width="150" height="30" as="geometry">
            <mxRectangle width="150" height="30" as="alternateBounds" />
          </mxGeometry>
        </mxCell>
        <mxCell id="5QtFYwSILm9UZeChAxwK-62" style="shape=tableRow;horizontal=0;startSize=0;swimlaneHead=0;swimlaneBody=0;fillColor=none;collapsible=0;dropTarget=0;points=[[0,0.5],[1,0.5]];portConstraint=eastwest;top=0;left=0;right=0;bottom=0;" parent="5QtFYwSILm9UZeChAxwK-58" vertex="1">
          <mxGeometry y="60" width="180" height="30" as="geometry" />
        </mxCell>
        <mxCell id="5QtFYwSILm9UZeChAxwK-63" style="shape=partialRectangle;connectable=0;fillColor=none;top=0;left=0;bottom=0;right=0;editable=1;overflow=hidden;whiteSpace=wrap;html=1;" parent="5QtFYwSILm9UZeChAxwK-62" vertex="1">
          <mxGeometry width="30" height="30" as="geometry">
            <mxRectangle width="30" height="30" as="alternateBounds" />
          </mxGeometry>
        </mxCell>
        <mxCell id="5QtFYwSILm9UZeChAxwK-64" value="status" style="shape=partialRectangle;connectable=0;fillColor=none;top=0;left=0;bottom=0;right=0;align=left;spacingLeft=6;overflow=hidden;whiteSpace=wrap;html=1;" parent="5QtFYwSILm9UZeChAxwK-62" vertex="1">
          <mxGeometry x="30" width="150" height="30" as="geometry">
            <mxRectangle width="150" height="30" as="alternateBounds" />
          </mxGeometry>
        </mxCell>
        <mxCell id="5QtFYwSILm9UZeChAxwK-65" value="" style="shape=tableRow;horizontal=0;startSize=0;swimlaneHead=0;swimlaneBody=0;fillColor=none;collapsible=0;dropTarget=0;points=[[0,0.5],[1,0.5]];portConstraint=eastwest;top=0;left=0;right=0;bottom=0;" parent="5QtFYwSILm9UZeChAxwK-58" vertex="1">
          <mxGeometry y="90" width="180" height="30" as="geometry" />
        </mxCell>
        <mxCell id="5QtFYwSILm9UZeChAxwK-66" value="" style="shape=partialRectangle;connectable=0;fillColor=none;top=0;left=0;bottom=0;right=0;editable=1;overflow=hidden;whiteSpace=wrap;html=1;" parent="5QtFYwSILm9UZeChAxwK-65" vertex="1">
          <mxGeometry width="30" height="30" as="geometry">
            <mxRectangle width="30" height="30" as="alternateBounds" />
          </mxGeometry>
        </mxCell>
        <mxCell id="5QtFYwSILm9UZeChAxwK-67" value="date_start" style="shape=partialRectangle;connectable=0;fillColor=none;top=0;left=0;bottom=0;right=0;align=left;spacingLeft=6;overflow=hidden;whiteSpace=wrap;html=1;" parent="5QtFYwSILm9UZeChAxwK-65" vertex="1">
          <mxGeometry x="30" width="150" height="30" as="geometry">
            <mxRectangle width="150" height="30" as="alternateBounds" />
          </mxGeometry>
        </mxCell>
        <mxCell id="5QtFYwSILm9UZeChAxwK-68" style="shape=tableRow;horizontal=0;startSize=0;swimlaneHead=0;swimlaneBody=0;fillColor=none;collapsible=0;dropTarget=0;points=[[0,0.5],[1,0.5]];portConstraint=eastwest;top=0;left=0;right=0;bottom=0;" parent="5QtFYwSILm9UZeChAxwK-58" vertex="1">
          <mxGeometry y="120" width="180" height="30" as="geometry" />
        </mxCell>
        <mxCell id="5QtFYwSILm9UZeChAxwK-69" value="" style="shape=partialRectangle;connectable=0;fillColor=none;top=0;left=0;bottom=0;right=0;editable=1;overflow=hidden;whiteSpace=wrap;html=1;" parent="5QtFYwSILm9UZeChAxwK-68" vertex="1">
          <mxGeometry width="30" height="30" as="geometry">
            <mxRectangle width="30" height="30" as="alternateBounds" />
          </mxGeometry>
        </mxCell>
        <mxCell id="5QtFYwSILm9UZeChAxwK-70" value="date_end" style="shape=partialRectangle;connectable=0;fillColor=none;top=0;left=0;bottom=0;right=0;align=left;spacingLeft=6;overflow=hidden;whiteSpace=wrap;html=1;" parent="5QtFYwSILm9UZeChAxwK-68" vertex="1">
          <mxGeometry x="30" width="150" height="30" as="geometry">
            <mxRectangle width="150" height="30" as="alternateBounds" />
          </mxGeometry>
        </mxCell>
        <mxCell id="5QtFYwSILm9UZeChAxwK-80" value="" style="edgeStyle=entityRelationEdgeStyle;fontSize=12;html=1;endArrow=ERoneToMany;rounded=0;" parent="1" source="5QtFYwSILm9UZeChAxwK-59" target="5QtFYwSILm9UZeChAxwK-77" edge="1">
          <mxGeometry width="100" height="100" relative="1" as="geometry">
            <mxPoint x="150" y="640" as="sourcePoint" />
            <mxPoint x="250" y="540" as="targetPoint" />
          </mxGeometry>
        </mxCell>
        <mxCell id="cdYyEc3HnJa9cpmwEMiS-1" value="" style="edgeStyle=entityRelationEdgeStyle;fontSize=12;html=1;endArrow=ERoneToMany;rounded=0;" parent="1" source="uixmEJtQYE6XZ1nQol0m-15" target="11lCWuZK7TydoHT1iVC6-1" edge="1">
          <mxGeometry width="100" height="100" relative="1" as="geometry">
            <mxPoint x="410" y="580" as="sourcePoint" />
            <mxPoint x="510" y="480" as="targetPoint" />
          </mxGeometry>
        </mxCell>
      </root>
    </mxGraphModel>
  </diagram>
  <diagram id="M8MCNg2VrpoOQDNSQ2kC" name="Пользователь">
    <mxGraphModel dx="1834" dy="772" grid="0" gridSize="10" guides="1" tooltips="1" connect="1" arrows="1" fold="1" page="0" pageScale="1" pageWidth="827" pageHeight="1169" math="0" shadow="0">
      <root>
        <mxCell id="0" />
        <mxCell id="1" parent="0" />
        <mxCell id="rEfz7HgZNXsX788ZGbcW-2" value="Регистрация" style="rounded=1;whiteSpace=wrap;html=1;fillColor=#dae8fc;strokeColor=#6c8ebf;" vertex="1" parent="1">
          <mxGeometry x="40" y="40" width="160" height="60" as="geometry" />
        </mxCell>
        <mxCell id="rEfz7HgZNXsX788ZGbcW-3" value="Авторизация" style="rounded=1;whiteSpace=wrap;html=1;fillColor=#dae8fc;strokeColor=#6c8ebf;" vertex="1" parent="1">
          <mxGeometry x="40" y="160" width="160" height="60" as="geometry" />
        </mxCell>
        <mxCell id="6JIUWJXlVK8UCfbq9w7R-1" value="Показ категорий товаров" style="rounded=1;whiteSpace=wrap;html=1;fillColor=#dae8fc;strokeColor=#6c8ebf;" vertex="1" parent="1">
          <mxGeometry x="40" y="280" width="160" height="60" as="geometry" />
        </mxCell>
        <mxCell id="6JIUWJXlVK8UCfbq9w7R-2" value="Просмотр товаров" style="rounded=1;whiteSpace=wrap;html=1;fillColor=#dae8fc;strokeColor=#6c8ebf;" vertex="1" parent="1">
          <mxGeometry x="240" y="280" width="160" height="60" as="geometry" />
        </mxCell>
        <mxCell id="6JIUWJXlVK8UCfbq9w7R-3" value="Показ новостей" style="rounded=1;whiteSpace=wrap;html=1;fillColor=#dae8fc;strokeColor=#6c8ebf;" vertex="1" parent="1">
          <mxGeometry x="240" y="160" width="160" height="60" as="geometry" />
        </mxCell>
        <mxCell id="6JIUWJXlVK8UCfbq9w7R-4" value="Просмотр новости" style="rounded=1;whiteSpace=wrap;html=1;fillColor=#dae8fc;strokeColor=#6c8ebf;" vertex="1" parent="1">
          <mxGeometry x="440" y="160" width="160" height="60" as="geometry" />
        </mxCell>
        <mxCell id="6JIUWJXlVK8UCfbq9w7R-5" value="Добавление товара в корзину" style="rounded=1;whiteSpace=wrap;html=1;fillColor=#dae8fc;strokeColor=#6c8ebf;" vertex="1" parent="1">
          <mxGeometry x="240" y="400" width="160" height="60" as="geometry" />
        </mxCell>
        <mxCell id="6JIUWJXlVK8UCfbq9w7R-6" value="Редактирование корзины" style="rounded=1;whiteSpace=wrap;html=1;fillColor=#dae8fc;strokeColor=#6c8ebf;" vertex="1" parent="1">
          <mxGeometry x="440" y="400" width="160" height="60" as="geometry" />
        </mxCell>
        <mxCell id="6JIUWJXlVK8UCfbq9w7R-7" value="Удаление товара из корзины" style="rounded=1;whiteSpace=wrap;html=1;fillColor=#dae8fc;strokeColor=#6c8ebf;" vertex="1" parent="1">
          <mxGeometry x="40" y="400" width="160" height="60" as="geometry" />
        </mxCell>
        <mxCell id="6JIUWJXlVK8UCfbq9w7R-8" value="Оформление заказа" style="rounded=1;whiteSpace=wrap;html=1;fillColor=#dae8fc;strokeColor=#6c8ebf;" vertex="1" parent="1">
          <mxGeometry x="240" y="520" width="160" height="60" as="geometry" />
        </mxCell>
        <mxCell id="6JIUWJXlVK8UCfbq9w7R-9" value="Просмотр своих заказов" style="rounded=1;whiteSpace=wrap;html=1;fillColor=#dae8fc;strokeColor=#6c8ebf;" vertex="1" parent="1">
          <mxGeometry x="440" y="520" width="160" height="60" as="geometry" />
        </mxCell>
        <mxCell id="6JIUWJXlVK8UCfbq9w7R-10" value="Добавление отзыва" style="rounded=1;whiteSpace=wrap;html=1;fillColor=#dae8fc;strokeColor=#6c8ebf;" vertex="1" parent="1">
          <mxGeometry x="40" y="520" width="160" height="60" as="geometry" />
        </mxCell>
        <mxCell id="6JIUWJXlVK8UCfbq9w7R-11" value="" style="endArrow=classic;html=1;rounded=0;" edge="1" parent="1" source="rEfz7HgZNXsX788ZGbcW-2" target="rEfz7HgZNXsX788ZGbcW-3">
          <mxGeometry width="50" height="50" relative="1" as="geometry">
            <mxPoint x="430" y="420" as="sourcePoint" />
            <mxPoint x="480" y="370" as="targetPoint" />
          </mxGeometry>
        </mxCell>
        <mxCell id="6JIUWJXlVK8UCfbq9w7R-12" value="" style="endArrow=classic;html=1;rounded=0;" edge="1" parent="1" source="rEfz7HgZNXsX788ZGbcW-3" target="6JIUWJXlVK8UCfbq9w7R-3">
          <mxGeometry width="50" height="50" relative="1" as="geometry">
            <mxPoint x="430" y="420" as="sourcePoint" />
            <mxPoint x="480" y="370" as="targetPoint" />
          </mxGeometry>
        </mxCell>
        <mxCell id="6JIUWJXlVK8UCfbq9w7R-13" value="" style="endArrow=classic;html=1;rounded=0;" edge="1" parent="1" source="6JIUWJXlVK8UCfbq9w7R-3" target="6JIUWJXlVK8UCfbq9w7R-4">
          <mxGeometry width="50" height="50" relative="1" as="geometry">
            <mxPoint x="430" y="420" as="sourcePoint" />
            <mxPoint x="480" y="370" as="targetPoint" />
          </mxGeometry>
        </mxCell>
        <mxCell id="6JIUWJXlVK8UCfbq9w7R-14" value="" style="endArrow=classic;html=1;rounded=0;" edge="1" parent="1" source="rEfz7HgZNXsX788ZGbcW-3" target="6JIUWJXlVK8UCfbq9w7R-1">
          <mxGeometry width="50" height="50" relative="1" as="geometry">
            <mxPoint x="430" y="420" as="sourcePoint" />
            <mxPoint x="480" y="370" as="targetPoint" />
          </mxGeometry>
        </mxCell>
        <mxCell id="6JIUWJXlVK8UCfbq9w7R-15" value="" style="endArrow=classic;html=1;rounded=0;" edge="1" parent="1" source="6JIUWJXlVK8UCfbq9w7R-1" target="6JIUWJXlVK8UCfbq9w7R-2">
          <mxGeometry width="50" height="50" relative="1" as="geometry">
            <mxPoint x="430" y="420" as="sourcePoint" />
            <mxPoint x="480" y="370" as="targetPoint" />
          </mxGeometry>
        </mxCell>
        <mxCell id="6JIUWJXlVK8UCfbq9w7R-16" value="" style="endArrow=classic;html=1;rounded=0;" edge="1" parent="1" source="6JIUWJXlVK8UCfbq9w7R-2" target="6JIUWJXlVK8UCfbq9w7R-5">
          <mxGeometry width="50" height="50" relative="1" as="geometry">
            <mxPoint x="430" y="420" as="sourcePoint" />
            <mxPoint x="480" y="370" as="targetPoint" />
          </mxGeometry>
        </mxCell>
        <mxCell id="6JIUWJXlVK8UCfbq9w7R-18" value="" style="endArrow=classic;html=1;rounded=0;" edge="1" parent="1" source="6JIUWJXlVK8UCfbq9w7R-5" target="6JIUWJXlVK8UCfbq9w7R-7">
          <mxGeometry width="50" height="50" relative="1" as="geometry">
            <mxPoint x="430" y="420" as="sourcePoint" />
            <mxPoint x="480" y="370" as="targetPoint" />
          </mxGeometry>
        </mxCell>
        <mxCell id="6JIUWJXlVK8UCfbq9w7R-19" value="" style="endArrow=classic;html=1;rounded=0;" edge="1" parent="1" source="6JIUWJXlVK8UCfbq9w7R-5" target="6JIUWJXlVK8UCfbq9w7R-6">
          <mxGeometry width="50" height="50" relative="1" as="geometry">
            <mxPoint x="430" y="420" as="sourcePoint" />
            <mxPoint x="480" y="370" as="targetPoint" />
          </mxGeometry>
        </mxCell>
        <mxCell id="6JIUWJXlVK8UCfbq9w7R-20" value="" style="endArrow=classic;html=1;rounded=0;" edge="1" parent="1" source="6JIUWJXlVK8UCfbq9w7R-5" target="6JIUWJXlVK8UCfbq9w7R-8">
          <mxGeometry width="50" height="50" relative="1" as="geometry">
            <mxPoint x="430" y="420" as="sourcePoint" />
            <mxPoint x="480" y="370" as="targetPoint" />
          </mxGeometry>
        </mxCell>
        <mxCell id="6JIUWJXlVK8UCfbq9w7R-21" value="" style="endArrow=classic;html=1;rounded=0;" edge="1" parent="1" source="6JIUWJXlVK8UCfbq9w7R-8" target="6JIUWJXlVK8UCfbq9w7R-9">
          <mxGeometry width="50" height="50" relative="1" as="geometry">
            <mxPoint x="430" y="420" as="sourcePoint" />
            <mxPoint x="480" y="370" as="targetPoint" />
          </mxGeometry>
        </mxCell>
        <mxCell id="6JIUWJXlVK8UCfbq9w7R-22" value="" style="endArrow=classic;html=1;rounded=0;" edge="1" parent="1" source="6JIUWJXlVK8UCfbq9w7R-8" target="6JIUWJXlVK8UCfbq9w7R-10">
          <mxGeometry width="50" height="50" relative="1" as="geometry">
            <mxPoint x="430" y="420" as="sourcePoint" />
            <mxPoint x="480" y="370" as="targetPoint" />
          </mxGeometry>
        </mxCell>
        <mxCell id="6JIUWJXlVK8UCfbq9w7R-23" value="Просмотр отзывов" style="rounded=1;whiteSpace=wrap;html=1;fillColor=#dae8fc;strokeColor=#6c8ebf;" vertex="1" parent="1">
          <mxGeometry x="440" y="280" width="160" height="60" as="geometry" />
        </mxCell>
        <mxCell id="6JIUWJXlVK8UCfbq9w7R-24" value="" style="endArrow=classic;html=1;rounded=0;" edge="1" parent="1" source="6JIUWJXlVK8UCfbq9w7R-2" target="6JIUWJXlVK8UCfbq9w7R-23">
          <mxGeometry width="50" height="50" relative="1" as="geometry">
            <mxPoint x="330" y="350" as="sourcePoint" />
            <mxPoint x="330" y="410" as="targetPoint" />
          </mxGeometry>
        </mxCell>
        <mxCell id="6JIUWJXlVK8UCfbq9w7R-25" value="Изменение пароля" style="rounded=1;whiteSpace=wrap;html=1;fillColor=#dae8fc;strokeColor=#6c8ebf;" vertex="1" parent="1">
          <mxGeometry x="-160" y="160" width="160" height="60" as="geometry" />
        </mxCell>
        <mxCell id="6JIUWJXlVK8UCfbq9w7R-26" value="" style="endArrow=classic;html=1;rounded=0;" edge="1" parent="1" source="rEfz7HgZNXsX788ZGbcW-3" target="6JIUWJXlVK8UCfbq9w7R-25">
          <mxGeometry width="50" height="50" relative="1" as="geometry">
            <mxPoint x="430" y="370" as="sourcePoint" />
            <mxPoint x="480" y="320" as="targetPoint" />
          </mxGeometry>
        </mxCell>
        <mxCell id="r_ApZPSCQVbgJXWihmm5-1" value="Пользователь" style="rounded=0;whiteSpace=wrap;html=1;fillColor=#f8cecc;strokeColor=#b85450;" vertex="1" parent="1">
          <mxGeometry x="-120" y="40" width="120" height="60" as="geometry" />
        </mxCell>
      </root>
    </mxGraphModel>
  </diagram>
  <diagram id="gAIDtToOelPzmWBmqLaJ" name="Менеджер">
    <mxGraphModel dx="2634" dy="772" grid="0" gridSize="10" guides="1" tooltips="1" connect="1" arrows="1" fold="1" page="0" pageScale="1" pageWidth="827" pageHeight="1169" math="0" shadow="0">
      <root>
        <mxCell id="0" />
        <mxCell id="1" parent="0" />
        <mxCell id="zWvbWm1gSqIgnz-0nOTA-1" value="Вход" style="rounded=1;whiteSpace=wrap;html=1;fillColor=#dae8fc;strokeColor=#6c8ebf;" vertex="1" parent="1">
          <mxGeometry x="-480" y="80" width="160" height="60" as="geometry" />
        </mxCell>
        <mxCell id="zWvbWm1gSqIgnz-0nOTA-2" value="Просмотр всех пользователей" style="rounded=1;whiteSpace=wrap;html=1;fillColor=#dae8fc;strokeColor=#6c8ebf;" vertex="1" parent="1">
          <mxGeometry x="-680" y="160" width="160" height="60" as="geometry" />
        </mxCell>
        <mxCell id="zWvbWm1gSqIgnz-0nOTA-3" value="Просмотр конкретного пользователя" style="rounded=1;whiteSpace=wrap;html=1;fillColor=#dae8fc;strokeColor=#6c8ebf;" vertex="1" parent="1">
          <mxGeometry x="-280" y="160" width="160" height="60" as="geometry" />
        </mxCell>
        <mxCell id="zWvbWm1gSqIgnz-0nOTA-4" value="Просмотр смен" style="rounded=1;whiteSpace=wrap;html=1;fillColor=#dae8fc;strokeColor=#6c8ebf;" vertex="1" parent="1">
          <mxGeometry x="-480" y="230" width="160" height="60" as="geometry" />
        </mxCell>
        <mxCell id="zWvbWm1gSqIgnz-0nOTA-5" value="Удаление смены" style="rounded=1;whiteSpace=wrap;html=1;fillColor=#dae8fc;strokeColor=#6c8ebf;" vertex="1" parent="1">
          <mxGeometry x="-280" y="280" width="160" height="60" as="geometry" />
        </mxCell>
        <mxCell id="zWvbWm1gSqIgnz-0nOTA-6" value="Создание смены" style="rounded=1;whiteSpace=wrap;html=1;fillColor=#dae8fc;strokeColor=#6c8ebf;" vertex="1" parent="1">
          <mxGeometry x="-680" y="280" width="160" height="60" as="geometry" />
        </mxCell>
        <mxCell id="zWvbWm1gSqIgnz-0nOTA-7" value="Добавление сотрудника на смену" style="rounded=1;whiteSpace=wrap;html=1;fillColor=#dae8fc;strokeColor=#6c8ebf;" vertex="1" parent="1">
          <mxGeometry x="-680" y="370" width="160" height="60" as="geometry" />
        </mxCell>
        <mxCell id="zWvbWm1gSqIgnz-0nOTA-8" value="Удаление сотрудника со смены" style="rounded=1;whiteSpace=wrap;html=1;fillColor=#dae8fc;strokeColor=#6c8ebf;" vertex="1" parent="1">
          <mxGeometry x="-880" y="380" width="160" height="60" as="geometry" />
        </mxCell>
        <mxCell id="zWvbWm1gSqIgnz-0nOTA-9" value="Редактирование смены" style="rounded=1;whiteSpace=wrap;html=1;fillColor=#dae8fc;strokeColor=#6c8ebf;" vertex="1" parent="1">
          <mxGeometry x="-880" y="280" width="160" height="60" as="geometry" />
        </mxCell>
        <mxCell id="zWvbWm1gSqIgnz-0nOTA-10" value="Удаление смены" style="rounded=1;whiteSpace=wrap;html=1;fillColor=#dae8fc;strokeColor=#6c8ebf;" vertex="1" parent="1">
          <mxGeometry x="-880" y="480" width="160" height="60" as="geometry" />
        </mxCell>
        <mxCell id="zWvbWm1gSqIgnz-0nOTA-11" value="" style="endArrow=classic;html=1;rounded=0;" edge="1" parent="1" source="zWvbWm1gSqIgnz-0nOTA-1" target="zWvbWm1gSqIgnz-0nOTA-4">
          <mxGeometry width="50" height="50" relative="1" as="geometry">
            <mxPoint x="-470" y="420" as="sourcePoint" />
            <mxPoint x="-420" y="370" as="targetPoint" />
          </mxGeometry>
        </mxCell>
        <mxCell id="zWvbWm1gSqIgnz-0nOTA-12" value="" style="endArrow=classic;html=1;rounded=0;" edge="1" parent="1" source="zWvbWm1gSqIgnz-0nOTA-1" target="zWvbWm1gSqIgnz-0nOTA-2">
          <mxGeometry width="50" height="50" relative="1" as="geometry">
            <mxPoint x="-470" y="420" as="sourcePoint" />
            <mxPoint x="-420" y="370" as="targetPoint" />
          </mxGeometry>
        </mxCell>
        <mxCell id="zWvbWm1gSqIgnz-0nOTA-13" value="" style="endArrow=classic;html=1;rounded=0;" edge="1" parent="1" source="zWvbWm1gSqIgnz-0nOTA-1" target="zWvbWm1gSqIgnz-0nOTA-3">
          <mxGeometry width="50" height="50" relative="1" as="geometry">
            <mxPoint x="-470" y="420" as="sourcePoint" />
            <mxPoint x="-420" y="370" as="targetPoint" />
          </mxGeometry>
        </mxCell>
        <mxCell id="zWvbWm1gSqIgnz-0nOTA-14" value="" style="endArrow=classic;html=1;rounded=0;" edge="1" parent="1" source="zWvbWm1gSqIgnz-0nOTA-4" target="zWvbWm1gSqIgnz-0nOTA-5">
          <mxGeometry width="50" height="50" relative="1" as="geometry">
            <mxPoint x="-470" y="420" as="sourcePoint" />
            <mxPoint x="-420" y="370" as="targetPoint" />
          </mxGeometry>
        </mxCell>
        <mxCell id="zWvbWm1gSqIgnz-0nOTA-15" value="" style="endArrow=classic;html=1;rounded=0;" edge="1" parent="1" source="zWvbWm1gSqIgnz-0nOTA-4" target="zWvbWm1gSqIgnz-0nOTA-6">
          <mxGeometry width="50" height="50" relative="1" as="geometry">
            <mxPoint x="-470" y="420" as="sourcePoint" />
            <mxPoint x="-420" y="370" as="targetPoint" />
          </mxGeometry>
        </mxCell>
        <mxCell id="zWvbWm1gSqIgnz-0nOTA-16" value="" style="endArrow=classic;html=1;rounded=0;" edge="1" parent="1" source="zWvbWm1gSqIgnz-0nOTA-6" target="zWvbWm1gSqIgnz-0nOTA-9">
          <mxGeometry width="50" height="50" relative="1" as="geometry">
            <mxPoint x="-470" y="420" as="sourcePoint" />
            <mxPoint x="-420" y="370" as="targetPoint" />
          </mxGeometry>
        </mxCell>
        <mxCell id="zWvbWm1gSqIgnz-0nOTA-17" value="" style="endArrow=classic;html=1;rounded=0;" edge="1" parent="1" source="zWvbWm1gSqIgnz-0nOTA-9" target="zWvbWm1gSqIgnz-0nOTA-8">
          <mxGeometry width="50" height="50" relative="1" as="geometry">
            <mxPoint x="-470" y="420" as="sourcePoint" />
            <mxPoint x="-420" y="370" as="targetPoint" />
          </mxGeometry>
        </mxCell>
        <mxCell id="zWvbWm1gSqIgnz-0nOTA-18" value="" style="endArrow=classic;html=1;rounded=0;" edge="1" parent="1" source="zWvbWm1gSqIgnz-0nOTA-8" target="zWvbWm1gSqIgnz-0nOTA-10">
          <mxGeometry width="50" height="50" relative="1" as="geometry">
            <mxPoint x="-470" y="420" as="sourcePoint" />
            <mxPoint x="-420" y="370" as="targetPoint" />
          </mxGeometry>
        </mxCell>
        <mxCell id="zWvbWm1gSqIgnz-0nOTA-19" value="" style="endArrow=classic;html=1;rounded=0;" edge="1" parent="1" source="zWvbWm1gSqIgnz-0nOTA-6" target="zWvbWm1gSqIgnz-0nOTA-7">
          <mxGeometry width="50" height="50" relative="1" as="geometry">
            <mxPoint x="-470" y="420" as="sourcePoint" />
            <mxPoint x="-420" y="370" as="targetPoint" />
          </mxGeometry>
        </mxCell>
        <mxCell id="zWvbWm1gSqIgnz-0nOTA-20" value="Менеджер" style="rounded=0;whiteSpace=wrap;html=1;fillColor=#f8cecc;strokeColor=#b85450;" vertex="1" parent="1">
          <mxGeometry x="-827" y="80" width="120" height="60" as="geometry" />
        </mxCell>
      </root>
    </mxGraphModel>
  </diagram>
  <diagram id="Gyp5r0qE7UpUoraEQZbo" name="Сотрудник">
    <mxGraphModel dx="2634" dy="772" grid="0" gridSize="10" guides="1" tooltips="1" connect="1" arrows="1" fold="1" page="0" pageScale="1" pageWidth="827" pageHeight="1169" math="0" shadow="0">
      <root>
        <mxCell id="0" />
        <mxCell id="1" parent="0" />
        <mxCell id="n8Fwi8X9jA6yn8lfUSbV-1" value="Сотрудник" style="rounded=0;whiteSpace=wrap;html=1;fillColor=#f8cecc;strokeColor=#b85450;" vertex="1" parent="1">
          <mxGeometry x="-800" y="80" width="120" height="60" as="geometry" />
        </mxCell>
        <mxCell id="P9Adn8wlktzogGNfpBSj-1" value="Вход" style="rounded=1;whiteSpace=wrap;html=1;fillColor=#dae8fc;strokeColor=#6c8ebf;" vertex="1" parent="1">
          <mxGeometry x="-480" y="80" width="160" height="60" as="geometry" />
        </mxCell>
        <mxCell id="P9Adn8wlktzogGNfpBSj-2" value="Просмотр смен" style="rounded=1;whiteSpace=wrap;html=1;fillColor=#dae8fc;strokeColor=#6c8ebf;" vertex="1" parent="1">
          <mxGeometry x="-480" y="200" width="160" height="60" as="geometry" />
        </mxCell>
        <mxCell id="P9Adn8wlktzogGNfpBSj-3" value="Просмотр конкретной смены" style="rounded=1;whiteSpace=wrap;html=1;fillColor=#dae8fc;strokeColor=#6c8ebf;" vertex="1" parent="1">
          <mxGeometry x="-280" y="200" width="160" height="60" as="geometry" />
        </mxCell>
        <mxCell id="P9Adn8wlktzogGNfpBSj-4" value="Просмотр заказов" style="rounded=1;whiteSpace=wrap;html=1;fillColor=#dae8fc;strokeColor=#6c8ebf;" vertex="1" parent="1">
          <mxGeometry x="-680" y="200" width="160" height="60" as="geometry" />
        </mxCell>
        <mxCell id="P9Adn8wlktzogGNfpBSj-5" value="Прикрепление к заказу" style="rounded=1;whiteSpace=wrap;html=1;fillColor=#dae8fc;strokeColor=#6c8ebf;" vertex="1" parent="1">
          <mxGeometry x="-840" y="280" width="160" height="60" as="geometry" />
        </mxCell>
        <mxCell id="P9Adn8wlktzogGNfpBSj-6" value="Открепление от заказа" style="rounded=1;whiteSpace=wrap;html=1;fillColor=#dae8fc;strokeColor=#6c8ebf;" vertex="1" parent="1">
          <mxGeometry x="-520" y="280" width="160" height="60" as="geometry" />
        </mxCell>
        <mxCell id="P9Adn8wlktzogGNfpBSj-7" value="" style="endArrow=classic;html=1;rounded=0;" edge="1" parent="1" source="P9Adn8wlktzogGNfpBSj-1" target="P9Adn8wlktzogGNfpBSj-2">
          <mxGeometry width="50" height="50" relative="1" as="geometry">
            <mxPoint x="-580" y="220" as="sourcePoint" />
            <mxPoint x="-530" y="170" as="targetPoint" />
          </mxGeometry>
        </mxCell>
        <mxCell id="P9Adn8wlktzogGNfpBSj-8" value="" style="endArrow=classic;html=1;rounded=0;" edge="1" parent="1" source="P9Adn8wlktzogGNfpBSj-2" target="P9Adn8wlktzogGNfpBSj-3">
          <mxGeometry width="50" height="50" relative="1" as="geometry">
            <mxPoint x="-580" y="220" as="sourcePoint" />
            <mxPoint x="-530" y="170" as="targetPoint" />
          </mxGeometry>
        </mxCell>
        <mxCell id="P9Adn8wlktzogGNfpBSj-9" value="" style="endArrow=classic;html=1;rounded=0;" edge="1" parent="1" source="P9Adn8wlktzogGNfpBSj-2" target="P9Adn8wlktzogGNfpBSj-4">
          <mxGeometry width="50" height="50" relative="1" as="geometry">
            <mxPoint x="-580" y="220" as="sourcePoint" />
            <mxPoint x="-530" y="170" as="targetPoint" />
          </mxGeometry>
        </mxCell>
        <mxCell id="P9Adn8wlktzogGNfpBSj-10" value="" style="endArrow=classic;html=1;rounded=0;" edge="1" parent="1" source="P9Adn8wlktzogGNfpBSj-4" target="P9Adn8wlktzogGNfpBSj-6">
          <mxGeometry width="50" height="50" relative="1" as="geometry">
            <mxPoint x="-580" y="220" as="sourcePoint" />
            <mxPoint x="-530" y="170" as="targetPoint" />
          </mxGeometry>
        </mxCell>
        <mxCell id="P9Adn8wlktzogGNfpBSj-11" value="" style="endArrow=classic;html=1;rounded=0;" edge="1" parent="1" source="P9Adn8wlktzogGNfpBSj-4" target="P9Adn8wlktzogGNfpBSj-5">
          <mxGeometry width="50" height="50" relative="1" as="geometry">
            <mxPoint x="-580" y="220" as="sourcePoint" />
            <mxPoint x="-530" y="170" as="targetPoint" />
          </mxGeometry>
        </mxCell>
      </root>
    </mxGraphModel>
  </diagram>
  <diagram id="qO5T2j7uD0Ha3ePFni5L" name="Администратор">
    <mxGraphModel dx="2261" dy="772" grid="0" gridSize="10" guides="1" tooltips="1" connect="1" arrows="1" fold="1" page="1" pageScale="1" pageWidth="827" pageHeight="1169" math="0" shadow="0">
      <root>
        <mxCell id="0" />
        <mxCell id="1" parent="0" />
        <mxCell id="o52TswV2Ma06krJO0NF5-1" value="Администратор" style="rounded=0;whiteSpace=wrap;html=1;fillColor=#f8cecc;strokeColor=#b85450;" vertex="1" parent="1">
          <mxGeometry x="-680" y="80" width="120" height="60" as="geometry" />
        </mxCell>
        <mxCell id="WmDBiKZ74C9i87uYJ_16-1" value="Вход" style="rounded=1;whiteSpace=wrap;html=1;fillColor=#dae8fc;strokeColor=#6c8ebf;" vertex="1" parent="1">
          <mxGeometry x="-480" y="80" width="160" height="60" as="geometry" />
        </mxCell>
        <mxCell id="WmDBiKZ74C9i87uYJ_16-2" value="CRUD новостей" style="rounded=1;whiteSpace=wrap;html=1;fillColor=#dae8fc;strokeColor=#6c8ebf;" vertex="1" parent="1">
          <mxGeometry x="-480" y="190" width="160" height="60" as="geometry" />
        </mxCell>
        <mxCell id="WmDBiKZ74C9i87uYJ_16-3" value="CRUD категорий" style="rounded=1;whiteSpace=wrap;html=1;fillColor=#dae8fc;strokeColor=#6c8ebf;" vertex="1" parent="1">
          <mxGeometry x="-680" y="190" width="160" height="60" as="geometry" />
        </mxCell>
        <mxCell id="WmDBiKZ74C9i87uYJ_16-4" value="CRUD товаров" style="rounded=1;whiteSpace=wrap;html=1;fillColor=#dae8fc;strokeColor=#6c8ebf;" vertex="1" parent="1">
          <mxGeometry x="-680" y="280" width="160" height="60" as="geometry" />
        </mxCell>
        <mxCell id="WmDBiKZ74C9i87uYJ_16-5" value="CRUD пользователей" style="rounded=1;whiteSpace=wrap;html=1;fillColor=#dae8fc;strokeColor=#6c8ebf;" vertex="1" parent="1">
          <mxGeometry x="-280" y="280" width="160" height="60" as="geometry" />
        </mxCell>
        <mxCell id="WmDBiKZ74C9i87uYJ_16-6" value="CRUD ролей" style="rounded=1;whiteSpace=wrap;html=1;fillColor=#dae8fc;strokeColor=#6c8ebf;" vertex="1" parent="1">
          <mxGeometry x="-280" y="190" width="160" height="60" as="geometry" />
        </mxCell>
        <mxCell id="WmDBiKZ74C9i87uYJ_16-7" value="CRUD отзывов" style="rounded=1;whiteSpace=wrap;html=1;fillColor=#dae8fc;strokeColor=#6c8ebf;" vertex="1" parent="1">
          <mxGeometry x="-680" y="370" width="160" height="60" as="geometry" />
        </mxCell>
        <mxCell id="WmDBiKZ74C9i87uYJ_16-8" value="CRUD заказов" style="rounded=1;whiteSpace=wrap;html=1;fillColor=#dae8fc;strokeColor=#6c8ebf;" vertex="1" parent="1">
          <mxGeometry x="-480" y="370" width="160" height="60" as="geometry" />
        </mxCell>
        <mxCell id="WmDBiKZ74C9i87uYJ_16-9" value="CRUD способов оплаты" style="rounded=1;whiteSpace=wrap;html=1;fillColor=#dae8fc;strokeColor=#6c8ebf;" vertex="1" parent="1">
          <mxGeometry x="-480" y="280" width="160" height="60" as="geometry" />
        </mxCell>
        <mxCell id="WmDBiKZ74C9i87uYJ_16-10" value="CRUD статусов заказов" style="rounded=1;whiteSpace=wrap;html=1;fillColor=#dae8fc;strokeColor=#6c8ebf;" vertex="1" parent="1">
          <mxGeometry x="-280" y="370" width="160" height="60" as="geometry" />
        </mxCell>
        <mxCell id="WmDBiKZ74C9i87uYJ_16-11" value="CRUD составов заказов" style="rounded=1;whiteSpace=wrap;html=1;fillColor=#dae8fc;strokeColor=#6c8ebf;" vertex="1" parent="1">
          <mxGeometry x="-480" y="470" width="160" height="60" as="geometry" />
        </mxCell>
        <mxCell id="WmDBiKZ74C9i87uYJ_16-12" value="CRUD отчётов" style="rounded=1;whiteSpace=wrap;html=1;fillColor=#dae8fc;strokeColor=#6c8ebf;" vertex="1" parent="1">
          <mxGeometry x="-480" y="560" width="160" height="60" as="geometry" />
        </mxCell>
        <mxCell id="WmDBiKZ74C9i87uYJ_16-13" value="" style="endArrow=classic;html=1;rounded=0;" edge="1" parent="1" source="WmDBiKZ74C9i87uYJ_16-1" target="WmDBiKZ74C9i87uYJ_16-2">
          <mxGeometry width="50" height="50" relative="1" as="geometry">
            <mxPoint x="-420" y="420" as="sourcePoint" />
            <mxPoint x="-370" y="370" as="targetPoint" />
          </mxGeometry>
        </mxCell>
        <mxCell id="WmDBiKZ74C9i87uYJ_16-14" value="" style="endArrow=classic;html=1;rounded=0;" edge="1" parent="1" source="WmDBiKZ74C9i87uYJ_16-2" target="WmDBiKZ74C9i87uYJ_16-3">
          <mxGeometry width="50" height="50" relative="1" as="geometry">
            <mxPoint x="-420" y="420" as="sourcePoint" />
            <mxPoint x="-370" y="370" as="targetPoint" />
          </mxGeometry>
        </mxCell>
        <mxCell id="WmDBiKZ74C9i87uYJ_16-15" value="" style="endArrow=classic;html=1;rounded=0;" edge="1" parent="1" source="WmDBiKZ74C9i87uYJ_16-2" target="WmDBiKZ74C9i87uYJ_16-6">
          <mxGeometry width="50" height="50" relative="1" as="geometry">
            <mxPoint x="-420" y="420" as="sourcePoint" />
            <mxPoint x="-370" y="370" as="targetPoint" />
          </mxGeometry>
        </mxCell>
        <mxCell id="WmDBiKZ74C9i87uYJ_16-16" value="" style="endArrow=classic;html=1;rounded=0;" edge="1" parent="1" source="WmDBiKZ74C9i87uYJ_16-2" target="WmDBiKZ74C9i87uYJ_16-9">
          <mxGeometry width="50" height="50" relative="1" as="geometry">
            <mxPoint x="-420" y="420" as="sourcePoint" />
            <mxPoint x="-370" y="370" as="targetPoint" />
          </mxGeometry>
        </mxCell>
        <mxCell id="WmDBiKZ74C9i87uYJ_16-18" value="" style="endArrow=classic;html=1;rounded=0;" edge="1" parent="1" source="WmDBiKZ74C9i87uYJ_16-3" target="WmDBiKZ74C9i87uYJ_16-4">
          <mxGeometry width="50" height="50" relative="1" as="geometry">
            <mxPoint x="-420" y="420" as="sourcePoint" />
            <mxPoint x="-370" y="370" as="targetPoint" />
          </mxGeometry>
        </mxCell>
        <mxCell id="WmDBiKZ74C9i87uYJ_16-19" value="" style="endArrow=classic;html=1;rounded=0;" edge="1" parent="1" source="WmDBiKZ74C9i87uYJ_16-9" target="WmDBiKZ74C9i87uYJ_16-8">
          <mxGeometry width="50" height="50" relative="1" as="geometry">
            <mxPoint x="-420" y="420" as="sourcePoint" />
            <mxPoint x="-370" y="370" as="targetPoint" />
          </mxGeometry>
        </mxCell>
        <mxCell id="WmDBiKZ74C9i87uYJ_16-20" value="" style="endArrow=classic;html=1;rounded=0;" edge="1" parent="1" source="WmDBiKZ74C9i87uYJ_16-8" target="WmDBiKZ74C9i87uYJ_16-7">
          <mxGeometry width="50" height="50" relative="1" as="geometry">
            <mxPoint x="-420" y="420" as="sourcePoint" />
            <mxPoint x="-370" y="370" as="targetPoint" />
          </mxGeometry>
        </mxCell>
        <mxCell id="WmDBiKZ74C9i87uYJ_16-21" value="" style="endArrow=classic;html=1;rounded=0;" edge="1" parent="1" source="WmDBiKZ74C9i87uYJ_16-8" target="WmDBiKZ74C9i87uYJ_16-10">
          <mxGeometry width="50" height="50" relative="1" as="geometry">
            <mxPoint x="-420" y="420" as="sourcePoint" />
            <mxPoint x="-370" y="370" as="targetPoint" />
          </mxGeometry>
        </mxCell>
        <mxCell id="WmDBiKZ74C9i87uYJ_16-22" value="" style="endArrow=classic;html=1;rounded=0;" edge="1" parent="1" source="WmDBiKZ74C9i87uYJ_16-6" target="WmDBiKZ74C9i87uYJ_16-5">
          <mxGeometry width="50" height="50" relative="1" as="geometry">
            <mxPoint x="-310" y="230" as="sourcePoint" />
            <mxPoint x="-270" y="230" as="targetPoint" />
          </mxGeometry>
        </mxCell>
        <mxCell id="WmDBiKZ74C9i87uYJ_16-23" value="" style="endArrow=classic;html=1;rounded=0;" edge="1" parent="1" source="WmDBiKZ74C9i87uYJ_16-8" target="WmDBiKZ74C9i87uYJ_16-11">
          <mxGeometry width="50" height="50" relative="1" as="geometry">
            <mxPoint x="-310" y="410" as="sourcePoint" />
            <mxPoint x="-270" y="410" as="targetPoint" />
          </mxGeometry>
        </mxCell>
        <mxCell id="WmDBiKZ74C9i87uYJ_16-24" value="" style="endArrow=classic;html=1;rounded=0;" edge="1" parent="1" source="WmDBiKZ74C9i87uYJ_16-11" target="WmDBiKZ74C9i87uYJ_16-12">
          <mxGeometry width="50" height="50" relative="1" as="geometry">
            <mxPoint x="-390" y="440" as="sourcePoint" />
            <mxPoint x="-390" y="480" as="targetPoint" />
          </mxGeometry>
        </mxCell>
      </root>
    </mxGraphModel>
  </diagram>
</mxfile>
